<?xml version="1.0" encoding="utf-8"?>
<!-- Generator: Adobe Illustrator 16.0.0, SVG Export Plug-In . SVG Version: 6.00 Build 0)  -->
<!DOCTYPE svg PUBLIC "-//W3C//DTD SVG 1.1//EN" "http://www.w3.org/Graphics/SVG/1.1/DTD/svg11.dtd">
<svg version="1.1" id="Layer_1" xmlns="http://www.w3.org/2000/svg" xmlns:xlink="http://www.w3.org/1999/xlink" x="0px" y="0px"
	 width="1216.338px" height="427.256px" viewBox="0 0 1216.338 427.256" enable-background="new 0 0 1216.338 427.256"
	 xml:space="preserve">
<rect id="Background" x="-1183.534" y="-275.419" display="none" fill="#262262" width="5495.334" height="2482"/>
<g id="Stars" display="none">
	<g display="inline">
		
			<line fill="none" stroke="#FFFFFF" stroke-width="6" stroke-miterlimit="10" x1="2572.227" y1="1124.494" x2="2661.525" y2="947.716"/>
		
			<line fill="none" stroke="#FFFFFF" stroke-width="6" stroke-miterlimit="10" x1="2661.525" y1="1220.165" x2="2759.423" y2="1103.626"/>
		
			<line fill="none" stroke="#FFFFFF" stroke-width="6" stroke-miterlimit="10" x1="2567.928" y1="1220.165" x2="2665.825" y2="1103.626"/>
	</g>
	<path display="inline" d="M322.147,1274.273"/>
	<path display="inline" fill="none" stroke="#FFFFFF" stroke-width="10" stroke-miterlimit="10" d="M356.466,1265.915"/>
	<path display="inline" fill="none" stroke="#FFFFFF" stroke-width="10" stroke-miterlimit="10" d="M249.133,1271.249"/>
	<path display="inline" fill="none" stroke="#FFFFFF" stroke-width="10" stroke-miterlimit="10" d="M350.147,1255.915"/>
	<path display="inline" fill="none" stroke="#FFFFFF" stroke-width="10" stroke-miterlimit="10" d="M250.147,1255.915"/>
	<path display="inline" fill="#FFFFFF" d="M2350.466,753.581c-6.448,0-6.448,10,0,10
		C2356.915,763.581,2356.915,753.581,2350.466,753.581z"/>
	<path display="inline" fill="#FFFFFF" d="M1572.466,827.581c-6.449,0-6.449,10,0,10S1578.915,827.581,1572.466,827.581z"/>
	<path display="inline" fill="#FFFFFF" d="M1796.466,961.581c-6.449,0-6.449,10,0,10S1802.915,961.581,1796.466,961.581z"/>
	<path display="inline" fill="#FFFFFF" d="M1972.466,755.581c-6.448,0-6.448,10,0,10
		C1978.915,765.581,1978.915,755.581,1972.466,755.581z"/>
	<path display="inline" fill="#FFFFFF" d="M1460.466,1021.581c-6.449,0-6.449,10,0,10S1466.915,1021.581,1460.466,1021.581z"/>
	<path display="inline" fill="#FFFFFF" d="M1734.466,1195.581c-6.449,0-6.449,10,0,10S1740.915,1195.581,1734.466,1195.581z"/>
	<path display="inline" fill="#FFFFFF" d="M2106.466,1293.581c-6.448,0-6.448,10,0,10
		C2112.915,1303.581,2112.915,1293.581,2106.466,1293.581z"/>
	<path display="inline" fill="#FFFFFF" d="M2028.466,1567.581c-6.448,0-6.448,10,0,10
		C2034.915,1577.581,2034.915,1567.581,2028.466,1567.581z"/>
	<path display="inline" fill="#FFFFFF" d="M1802.466,1405.581c-6.449,0-6.449,10,0,10S1808.915,1405.581,1802.466,1405.581z"/>
	<path display="inline" fill="#FFFFFF" d="M2312.466,531.581c-6.448,0-6.448,10,0,10
		C2318.915,541.581,2318.915,531.581,2312.466,531.581z"/>
	<path display="inline" fill="#FFFFFF" d="M1394.466,689.581c-6.449,0-6.449,10,0,10S1400.915,689.581,1394.466,689.581z"/>
	<path display="inline" fill="#FFFFFF" d="M1758.466,627.581c-6.449,0-6.449,10,0,10S1764.915,627.581,1758.466,627.581z"/>
	<path display="inline" fill="#FFFFFF" d="M2690.466,693.581c-6.448,0-6.448,10,0,10
		C2696.915,703.581,2696.915,693.581,2690.466,693.581z"/>
	<path display="inline" fill="#FFFFFF" d="M2164.466,1093.581c-6.448,0-6.448,10,0,10
		C2170.915,1103.581,2170.915,1093.581,2164.466,1093.581z"/>
	<path display="inline" fill="#FFFFFF" d="M2814.466,981.581c-6.448,0-6.448,10,0,10
		C2820.915,991.581,2820.915,981.581,2814.466,981.581z"/>
	<path display="inline" fill="#FFFFFF" d="M2564.466,851.581c-6.448,0-6.448,10,0,10
		C2570.915,861.581,2570.915,851.581,2564.466,851.581z"/>
	<path display="inline" fill="#FFFFFF" d="M2566.466,1275.581c-6.448,0-6.448,10,0,10
		C2572.915,1285.581,2572.915,1275.581,2566.466,1275.581z"/>
	<path display="inline" fill="#FFFFFF" d="M1976.466,1907.581c-6.448,0-6.448,10,0,10
		C1982.915,1917.581,1982.915,1907.581,1976.466,1907.581z"/>
	<path display="inline" fill="#FFFFFF" d="M2228.466,1679.581c-6.448,0-6.448,10,0,10
		C2234.915,1689.581,2234.915,1679.581,2228.466,1679.581z"/>
	<path display="inline" fill="#FFFFFF" d="M2188.466,1541.581c-6.448,0-6.448,10,0,10
		C2194.915,1551.581,2194.915,1541.581,2188.466,1541.581z"/>
	<path display="inline" fill="#FFFFFF" d="M1416.466,1811.581c-6.449,0-6.449,10,0,10S1422.915,1811.581,1416.466,1811.581z"/>
	<path display="inline" fill="#FFFFFF" d="M1604.466,1709.581c-6.449,0-6.449,10,0,10S1610.915,1709.581,1604.466,1709.581z"/>
	<path display="inline" fill="#FFFFFF" d="M1264.466,1405.581c-6.449,0-6.449,10,0,10S1270.915,1405.581,1264.466,1405.581z"/>
	<path display="inline" fill="#FFFFFF" d="M2170.466,725.581c-6.448,0-6.448,10,0,10
		C2176.915,735.581,2176.915,725.581,2170.466,725.581z"/>
	<path display="inline" fill="#FFFFFF" d="M1016.466,1151.581c-6.448,0-6.448,10,0,10S1022.914,1151.581,1016.466,1151.581z"/>
	<path display="inline" fill="#FFFFFF" d="M278.466,1171.581c-6.449,0-6.449,10,0,10
		C284.915,1181.581,284.915,1171.581,278.466,1171.581z"/>
	<path display="inline" fill="#FFFFFF" d="M790.466,1415.581c-6.448,0-6.448,10,0,10S796.914,1415.581,790.466,1415.581z"/>
	<path display="inline" fill="#FFFFFF" d="M420.466,1469.581c-6.449,0-6.449,10,0,10
		C426.914,1479.581,426.914,1469.581,420.466,1469.581z"/>
	<path display="inline" fill="#FFFFFF" d="M1004.466,1567.581c-6.448,0-6.448,10,0,10S1010.914,1567.581,1004.466,1567.581z"/>
	<path display="inline" fill="#FFFFFF" d="M810.322,805.279c-6.448,0-6.448,10,0,10C816.77,815.279,816.771,805.279,810.322,805.279
		z"/>
	<path display="inline" fill="#FFFFFF" d="M393.281,772.276c-6.449,0-6.449,10,0,10C399.73,782.276,399.729,772.276,393.281,772.276
		z"/>
	<path display="inline" fill="#FFFFFF" d="M1812.423,271.226c-6.449,0-6.449,10,0,10S1818.872,271.226,1812.423,271.226z"/>
	<path display="inline" fill="#FFFFFF" d="M2556.497,184.217c-6.449,0-6.449,10,0,10S2562.946,184.217,2556.497,184.217z"/>
	<path display="inline" fill="#FFFFFF" d="M2133.455,157.214c-6.448,0-6.448,10,0,10S2139.903,157.214,2133.455,157.214z"/>
	<path display="inline" fill="#FFFFFF" d="M1512.393-97.811c-6.447,0-6.447,10,0,10
		C1518.841-87.811,1518.841-97.811,1512.393-97.811z"/>
	<path display="inline" fill="#FFFFFF" d="M1440.386,343.233c-6.448,0-6.448,10,0,10
		C1446.835,353.233,1446.835,343.233,1440.386,343.233z"/>
	<path display="inline" fill="#FFFFFF" d="M27.244,598.26c-6.449,0-6.449,10,0,10C33.693,608.26,33.693,598.26,27.244,598.26z"/>
	<path display="inline" fill="#FFFFFF" d="M-17.76,1246.323c-6.449,0-6.449,10,0,10
		C-11.311,1256.323-11.312,1246.323-17.76,1246.323z"/>
	<path display="inline" fill="#FFFFFF" d="M591.301,1030.302c-6.447,0-6.447,10,0,10
		C597.749,1040.302,597.749,1030.302,591.301,1030.302z"/>
	<path display="inline" fill="#FFFFFF" d="M1122.354,817.28c-6.447,0-6.447,10,0,10
		C1128.802,827.28,1128.802,817.28,1122.354,817.28z"/>
	<path display="inline" fill="#FFFFFF" d="M669.309,535.253c-6.447,0-6.447,10,0,10
		C675.757,545.253,675.757,535.253,669.309,535.253z"/>
	<path display="inline" fill="#FFFFFF" d="M-95.768-16.803c-6.449,0-6.449,10,0,10C-89.319-6.803-89.319-16.803-95.768-16.803z"/>
	<path display="inline" fill="#FFFFFF" d="M714.313-157.817c-6.447,0-6.447,10,0,10
		C720.761-147.817,720.762-157.817,714.313-157.817z"/>
	<path display="inline" fill="#FFFFFF" d="M-335.534,993.581c-6.449,0-6.449,10,0,10
		C-329.085,1003.581-329.085,993.581-335.534,993.581z"/>
	<path display="inline" fill="#FFFFFF" d="M-499.534,445.581c-6.449,0-6.449,10,0,10
		C-493.085,455.581-493.085,445.581-499.534,445.581z"/>
	<path display="inline" fill="#FFFFFF" d="M-923.534,77.581c-6.449,0-6.449,10,0,10C-917.085,87.581-917.085,77.581-923.534,77.581z
		"/>
	<path display="inline" fill="#FFFFFF" d="M-855.534,1073.581c-6.449,0-6.449,10,0,10
		C-849.085,1083.581-849.085,1073.581-855.534,1073.581z"/>
	<path display="inline" fill="#FFFFFF" d="M-843.534,717.581c-6.449,0-6.449,10,0,10
		C-837.085,727.581-837.085,717.581-843.534,717.581z"/>
	<path display="inline" fill="#FFFFFF" d="M-395.534,1561.581c-6.449,0-6.449,10,0,10
		C-389.085,1571.581-389.085,1561.581-395.534,1561.581z"/>
	<path display="inline" fill="#FFFFFF" d="M-939.534,1637.581c-6.449,0-6.449,10,0,10
		C-933.085,1647.581-933.085,1637.581-939.534,1637.581z"/>
	<path display="inline" fill="#FFFFFF" d="M-635.534,1293.581c-6.449,0-6.449,10,0,10
		C-629.085,1303.581-629.085,1293.581-635.534,1293.581z"/>
	<path display="inline" fill="#FFFFFF" d="M2932.466-158.419c-6.448,0-6.448,10,0,10
		C2938.915-148.419,2938.915-158.419,2932.466-158.419z"/>
	<path display="inline" fill="#FFFFFF" d="M2924.466,329.581c-6.448,0-6.448,10,0,10
		C2930.915,339.581,2930.915,329.581,2924.466,329.581z"/>
	<path display="inline" fill="#FFFFFF" d="M3032.466,781.581c-6.448,0-6.448,10,0,10
		C3038.915,791.581,3038.915,781.581,3032.466,781.581z"/>
	<path display="inline" fill="#FFFFFF" d="M3472.466,289.581c-6.448,0-6.448,10,0,10
		C3478.915,299.581,3478.915,289.581,3472.466,289.581z"/>
	<path display="inline" fill="#FFFFFF" d="M3216.466,61.581c-6.448,0-6.448,10,0,10
		C3222.915,71.581,3222.915,61.581,3216.466,61.581z"/>
	<path display="inline" fill="#FFFFFF" d="M3196.466,581.581c-6.448,0-6.448,10,0,10
		C3202.915,591.581,3202.915,581.581,3196.466,581.581z"/>
	<path display="inline" fill="#FFFFFF" d="M4036.466-46.419c-6.448,0-6.448,10,0,10
		C4042.915-36.419,4042.915-46.419,4036.466-46.419z"/>
	<path display="inline" fill="#FFFFFF" d="M3832.466,585.581c-6.448,0-6.448,10,0,10
		C3838.915,595.581,3838.915,585.581,3832.466,585.581z"/>
	<path display="inline" fill="#FFFFFF" d="M3712.466,5.581c-6.448,0-6.448,10,0,10C3718.915,15.581,3718.915,5.581,3712.466,5.581z"
		/>
	<path display="inline" fill="#FFFFFF" d="M4232.466,1185.581c-6.449,0-6.449,10,0,10S4238.915,1185.581,4232.466,1185.581z"/>
	<path display="inline" fill="#FFFFFF" d="M4072.466,729.581c-6.448,0-6.448,10,0,10
		C4078.915,739.581,4078.915,729.581,4072.466,729.581z"/>
	<path display="inline" fill="#FFFFFF" d="M4144.466,297.581c-6.449,0-6.449,10,0,10S4150.915,297.581,4144.466,297.581z"/>
	<path display="inline" fill="#FFFFFF" d="M3884.466,341.581c-6.448,0-6.448,10,0,10
		C3890.915,351.581,3890.915,341.581,3884.466,341.581z"/>
	<path display="inline" fill="#FFFFFF" d="M3936.466,1001.581c-6.448,0-6.448,10,0,10
		C3942.915,1011.581,3942.915,1001.581,3936.466,1001.581z"/>
	<path display="inline" fill="#FFFFFF" d="M4244.466,1637.581c-2.726,0-5,2.274-5,5v4c0,2.727,2.274,5,5,5s5-2.273,5-5v-4
		C4249.466,1639.855,4247.191,1637.581,4244.466,1637.581z"/>
	<path display="inline" fill="#FFFFFF" d="M2472.466-6.419c-6.448,0-6.448,10,0,10C2478.915,3.581,2478.915-6.419,2472.466-6.419z"
		/>
	<path display="inline" fill="#FFFFFF" d="M-63.534,949.581c-6.449,0-6.449,10,0,10C-57.085,959.581-57.085,949.581-63.534,949.581z
		"/>
	<path display="inline" fill="#FFFFFF" d="M-579.534,733.581c-6.449,0-6.449,10,0,10
		C-573.085,743.581-573.085,733.581-579.534,733.581z"/>
	<path display="inline" fill="#FFFFFF" d="M1824.466,5.581c-6.449,0-6.449,10,0,10S1830.915,5.581,1824.466,5.581z"/>
	<path display="inline" fill="#FFFFFF" d="M-839.534,349.581c-6.449,0-6.449,10,0,10
		C-833.085,359.581-833.085,349.581-839.534,349.581z"/>
	<path display="inline" fill="#FFFFFF" d="M-171.534,425.581c-6.449,0-6.449,10,0,10
		C-165.085,435.581-165.085,425.581-171.534,425.581z"/>
</g>
<g id="Ground_1_">
	<polygon id="Ground" fill="#BCBEC0" points="-1212.565,2108.331 1009.302,2083.581 984.041,2206.581 -1194.156,2206.581 	"/>
	<g id="Mountain">
		<path fill="#BCBEC0" d="M2876.495,2188.081h1423.207c0,0-415.665-1156.647-687.07-1428.305
			c-245.651-245.879-747.232,418.403-736.137,393.305"/>
		<path fill="#BCBEC0" d="M975.041,2206.581h1904.425l-2-1053c0,0-676.998,720.098-754.993,801.094
			c-77.996,80.996-332.983,277.484-708.966,30.498l-324.041-256.471"/>
		<path fill="#E6E7E8" d="M984.041,2206.581h1894.425v-1036c0,0-676.998,720.098-754.993,801.094
			c-77.996,80.996-332.983,277.484-707.966,31.498l-324.041-256.471"/>
		<path fill="#E6E7E8" d="M2876.495,2205.581h1423.207c0,0-415.665-1156.647-687.07-1428.305
			c-246.469-246.697-746.416,416.555-736.137,393.305"/>
	</g>
</g>
<g id="Shmulik">
	<g>
		<polygon fill="#F79521" points="2465.045,1531.241 2450.438,1510.648 2481.244,1466.965 2523.02,1456.898 		"/>
		
			<rect x="2410.383" y="1505.063" transform="matrix(-0.7885 -0.6151 0.6151 -0.7885 3427.7068 4216.4014)" fill="#E9262A" width="57.007" height="27.451"/>
	</g>
	<g>
		<path fill="#F79521" d="M2455.821,1342.907c12.673,31.063-0.694,106.265-69.393,134.295l-6.523-15.998
			c72.86-29.732,52.024-94.499,52.024-94.499L2455.821,1342.907z"/>
		
			<ellipse transform="matrix(-0.9258 0.378 -0.378 -0.9258 5148.0225 1927.3036)" fill="#FDC888" cx="2384.865" cy="1468.881" rx="12.81" ry="11.519"/>
	</g>
	<g>
		<path d="M2347.946,1638.229c-16.225-9.956-21.753-15.956-30.054-23.455c-20.973-18.943-52.98-67.027-56.746-87.782
			c-3.762-20.753,1.951-39.544,17.146-56.362c22.494-24.903,48.399-30.631,78.808-30.267
			c37.012,0.445,106.438,21.496,138.327,50.302c4.043,3.652,7.441,6.916,10.19,9.801c21.51-23.813,98.193-107.396,126.929-142.726
			l30.435,23.613c-27.998,34.775-147.803,157.97-181.548,195.429c-31.599,35.076-45.045,48.051-66.591,63.399
			C2391.916,1656.516,2363.744,1647.924,2347.946,1638.229z M2320.384,1490.198c-32.661,36.811,0.548,92.352,32.884,114.916
			c14.243,9.939,22.743,9.651,34.856,7.983c12.115-1.667,58.229-50.681,92.267-88.362c-3.623-3.673-8.222-8.023-13.793-13.055
			C2417.34,1467.187,2356.689,1449.28,2320.384,1490.198z"/>
	</g>
	<g>
		<polygon fill="#F79521" points="2521.202,1509.434 2507.74,1487.94 2536.938,1453.852 2573.684,1445.03 		"/>
		
			<rect x="2466.834" y="1482.312" transform="matrix(-0.7716 -0.6361 0.6361 -0.7716 3469.0974 4237.6816)" fill="#E9262A" width="57.004" height="27.45"/>
	</g>
	<g>
		<g>
			<polygon fill="#E9262A" points="2573.684,1445.03 2480.96,1467.289 2471.363,1449.465 2561.383,1425.394 			"/>
			<polygon fill="#F79521" points="2562.852,1427.909 2471.363,1449.465 2434.655,1390.855 2428.066,1358.273 2483.2,1324.348 
				2507.877,1340.142 			"/>
		</g>
		<g>
			<path fill="#E9262A" d="M2535.138,1414.626c0.312,0.496,0.396,0.869,0.259,1.121c-0.052,0.129-0.342,0.395-0.881,0.797
				c-1.353,1.043-3.695,1.813-6.314,3.454c-3.706,2.32-6.644,2.472-7.381,2.735c-0.737,0.266-1.261,0.15-1.571-0.345
				c-1.169-1.865-1.761-3.007-3.925-6.859c-2.168-3.852-2.401-4.423-3.569-6.288c-0.578-0.92-1.171-1.288-1.778-1.104
				c-0.919,0.313-4.096,1.009-10.15,2.914c-6.135,1.928-8.852,3.153-9.56,3.859c-0.444,0.445-0.37,1.138,0.217,2.081
				c1.222,1.945,0.89,1.314,3.565,5.298c2.417,3.597,1.695,2.313,2.85,4.153c0.441,0.708,0.385,1.323-0.179,1.838
				c-0.669,0.615-3.126,1.843-7.239,3.237c-3.454,1.171-6.693,0.911-7.654,1.314c-0.758,0.312-1.328,0.16-1.713-0.454
				c-1.598-2.549,0.771,0.959-2.202-4.342c-2.977-5.301-2.404-4.664-4.018-7.235c-1.714-2.738-4.409-6.777-8.079-12.115
				c-3.677-5.34-8.874-13.379-10.591-16.118c-0.325-0.518-0.238-0.934,0.257-1.244c0.73-0.458,2.215-0.542,3.734-1.396
				c1.521-0.854,2.865-1.362,3.634-1.68c0.825-0.343,1.69-0.795,3.629-1.409c2.489-0.793,3.304-0.811,4.246-1.084
				c0.453-0.134,0.733-0.166,1,0.26c1.108,1.77,0.849,1.644,2.8,5.334c1.95,3.69,4.553,8.137,5.662,9.906
				c0.519,0.826,1.044,1.17,1.582,1.03c0.731-0.194,3.615-1.608,10.315-3.679c6.711-2.074,9.349-2.805,10.032-3.496
				c0.479-0.497,0.457-1.157-0.06-1.984c-1.065-1.698-3.831-5.928-6.146-9.259c-2.315-3.331-4.013-5.855-5.093-7.58
				c-0.457-0.73-0.393-1.282,0.197-1.651c0.687-0.43,1.968-0.81,3.56-1.285c1.617-0.483,2.791-1.063,3.593-1.307
				c1.055-0.321,2.347-0.704,3.809-1.273c1.548-0.604,2.382-0.961,3.435-1.17c0.794-0.158,1.206-0.361,1.559,0.206
				c1.7,2.713,2.362,4.022,5.569,9.637c3.205,5.616,5.664,9.792,7.379,12.53c1.612,2.573,4.152,6.354,7.622,11.344
				C2531.009,1408.308,2533.541,1412.077,2535.138,1414.626z"/>
		</g>
	</g>
	<g>
		<g>
			<circle fill="#FDC888" cx="2412.174" cy="1271.11" r="88.764"/>
			<path d="M2365.374,1195.516c-36.011,21.707-50.718,66.25-37.498,104.447l98.69-61.631l55.121,88.006
				c23.015-28.645,26.634-69.816,6.027-102.713C2461.694,1182.08,2408.49,1169.526,2365.374,1195.516z"/>
		</g>
		<g>
			<g>
				<path fill="#FFFFFF" d="M2424.841,1262.327c7.487,11.953,3.863,27.72-8.088,35.205c-11.955,7.488-27.715,3.864-35.202-8.09
					c-7.488-11.959-3.865-27.71,8.091-35.199C2401.592,1246.757,2417.354,1250.369,2424.841,1262.327z"/>
				<path d="M2404.167,1290.074c1.627,2.599,0.837,6.019-1.76,7.644c-2.599,1.628-6.021,0.847-7.646-1.751
					c-1.631-2.6-0.842-6.024,1.759-7.652C2399.114,1286.688,2402.539,1287.474,2404.167,1290.074z"/>
			</g>
			<g>
				<path fill="#FFFFFF" d="M2369.508,1298.68c7.488,11.954,3.868,27.714-8.09,35.204c-11.955,7.487-27.715,3.866-35.203-8.088
					c-7.486-11.954-3.865-27.712,8.09-35.199C2346.264,1283.107,2362.021,1286.725,2369.508,1298.68z"/>
				<path d="M2356.42,1319.977c1.627,2.6,0.841,6.02-1.757,7.646c-2.6,1.627-6.019,0.843-7.646-1.757
					c-1.626-2.596-0.845-6.022,1.755-7.648C2351.367,1316.592,2354.793,1317.383,2356.42,1319.977z"/>
			</g>
		</g>
		<g>
			<g>
				<path fill="#F16C4F" d="M2442.991,1321.844c7.2,11.497,7.685,24.182,1.084,28.316l-33.714,21.117
					c-6.603,4.135-17.804-1.839-25.008-13.335l0,0c-7.199-11.498-7.684-24.183-1.084-28.317l33.715-21.117
					C2424.589,1304.372,2435.788,1310.346,2442.991,1321.844L2442.991,1321.844z"/>
			</g>
			<path fill="#E9262A" d="M2432.804,1328.493c3.966,6.328,3.625,13.691-0.758,16.438l-22.386,14.021
				c-4.387,2.745-11.157-0.162-15.118-6.49l0,0c-3.965-6.329-3.627-13.692,0.757-16.438l22.385-14.021
				C2422.066,1319.258,2428.841,1322.165,2432.804,1328.493L2432.804,1328.493z"/>
		</g>
	</g>
	<g>
		<path fill="#F79521" d="M2483.2,1324.348c8.43-1.655,25.321,4.956,26.676,18.139c2.76,26.849-26.235,91.368-63.24,124.637
			l-11.55-12.853c58.525-52.612,46.549-119.989,46.549-119.989L2483.2,1324.348z"/>
		
			<ellipse transform="matrix(-0.7437 0.6685 -0.6685 -0.7437 5234.6484 912.198)" fill="#FDC888" cx="2442.449" cy="1459.623" rx="12.812" ry="11.522"/>
	</g>
</g>
<g id="Death">
	<g>
		<g>
			<path fill="#808285" d="M344.944,2087.028c0,0,98.005-417.788,96.309-457.943l28.991,6.097c0,0-105.642,419.214-95.28,453.042"/>
			<path fill="#BCBEC0" d="M467.693,1647.308c0,0,175.438,35.991,155.397,131.276c0,0,1.594-51.72-163.646-92.063"/>
		</g>
		<path fill="#F1F2F2" d="M603.364,1726.865c0,0-32.037-39.341-56.314-40.843C538.116,1685.469,603.364,1726.865,603.364,1726.865z"
			/>
	</g>
	<g>
		<path fill="#414042" d="M296.249,2116.806c0,0,92.058-296.237,20.064-372.952c-62.833-66.954-157.561-30.687-183.526-15.343
			c-25.965,15.343-29.541,24.865-33.047,50.75c-12.392,91.468,18.693,296.956,34.227,341.088c0,0,10.901-5.988,21.08-5.103
			c10.18,0.885-2.213,4.889-6.639,5.103c-4.426,0.211,40.718,8.178,39.391-9.974c-1.328-18.143,23.458,3.543,18.589,7.086
			c-4.87,3.539,21.687-8.852,26.997-5.313c5.312,3.543,19.917,6.738,12.835,8.236c-7.081,1.5,27.522,8.274,14.163-13.992
			C253.745,2095.331,296.249,2116.806,296.249,2116.806z"/>
		<g>
			<path d="M121.88,1848.331c0,39.511,44.98,57.856,44.98,57.856l0.449,34.497l34.079,0.098l-0.531-33.937l6.727,0.47l1.328,33.369
				h30.981l1.327-33.813h7.524l1.327,33.813l32.752-1.062c0,0-0.982-38.896,1.147-39.348c25.26-5.353,40.613-23.057,40.613-51.945
				c0-66.175-45.377-109.197-101.352-109.197C167.256,1739.134,121.88,1782.156,121.88,1848.331z"/>
			<g>
				<path fill="#FFFFFF" d="M153.565,1813.96c0,17.209,13.95,23.528,31.159,23.528c17.208,0,34.806-5.087,31.159-23.528
					c-3.336-16.882-13.951-31.158-31.157-31.158C167.516,1782.802,153.565,1796.751,153.565,1813.96z"/>
				<path fill="#FFFFFF" d="M292.901,1813.96c0,17.209-13.95,23.528-31.16,23.528c-17.208,0-34.807-5.087-31.16-23.528
					c3.338-16.882,13.95-31.158,31.159-31.158S292.901,1796.751,292.901,1813.96z"/>
			</g>
		</g>
		<path d="M309.95,1940.945c0,0,81.387,39.837,87.691,42.938c6.305,3.1-1.719,44.421-10.022,40.352
			c-8.304-4.069-77.669-38.077-77.669-38.077"/>
		<path fill="#414042" d="M232.088,1726.865c0,0-9.653,27.605-21.806,29.194c-2.48,0.325-15.22,9.892-22.984,19.805
			c0,0,6.463,3.7,1.354,11.836c0,0-6.277-3.959-6.957,10.688c-0.189,4.084-5.314-7.606-7.688-4.043
			c-4.926,7.391-11.323,4.658-14.277,15.801c-1.459,5.506-3.797,4.131-10.83,8.057c0,0-3.212,4.639-3.903,7.394
			c-12.018,47.916-37.251,83.869-34.75,88.253C118.869,1928.967,66.178,1710.851,232.088,1726.865z"/>
	</g>
</g>
<g id="Thorns">
	<g>
		<polyline points="21.788,2164.581 87.788,1857.581 117.788,2183.581 		"/>
		<polyline points="131.788,2143.581 159.788,2031.581 173.788,2127.581 		"/>
		<polyline points="223.483,2143.581 245.788,2059.081 245.788,2157.581 		"/>
		<polyline points="162.788,2183.581 208.788,1955.581 199.622,2164.581 		"/>
		<polyline points="286.839,2163.581 273.572,1964.581 261.572,2174.581 		"/>
		<polyline points="282.997,2183.581 372.58,1955.581 340.58,2174.581 		"/>
		<polyline points="360.788,2143.581 388.788,2031.581 402.788,2127.581 		"/>
		<polyline points="391.788,2183.581 437.788,1955.581 428.622,2164.581 		"/>
		<polyline points="483.839,2181.581 470.572,1982.581 458.572,2192.581 		"/>
		<polyline points="483.839,2150.581 506.145,2066.081 506.145,2164.581 		"/>
		<polyline points="527.144,2199.581 555.144,2087.581 569.144,2183.581 		"/>
		<polyline points="600.852,2181.581 587.585,1982.581 575.585,2192.581 		"/>
		<polyline points="597.01,2201.581 686.592,1973.581 654.592,2192.581 		"/>
		<polyline points="674.801,2161.581 702.801,2049.581 716.801,2145.581 		"/>
		<polyline points="705.801,2201.581 751.801,1973.581 742.635,2182.581 		"/>
		<polyline points="-54.949,2160.081 -68.216,1961.081 -80.216,2171.081 		"/>
		<polyline points="-58.791,2180.081 30.791,1952.081 -1.209,2171.081 		"/>
	</g>
	<g>
		<polyline points="-825.781,2155.581 -759.781,1848.581 -729.781,2174.581 		"/>
		<polyline points="-715.781,2134.581 -687.781,2022.581 -673.781,2118.581 		"/>
		<polyline points="-624.085,2134.581 -601.781,2050.081 -601.781,2148.581 		"/>
		<polyline points="-684.781,2174.581 -638.781,1946.581 -647.947,2155.581 		"/>
		<polyline points="-560.73,2154.581 -573.997,1955.581 -585.997,2165.581 		"/>
		<polyline points="-564.572,2174.581 -474.99,1946.581 -506.99,2165.581 		"/>
		<polyline points="-486.781,2134.581 -458.781,2022.581 -444.781,2118.581 		"/>
		<polyline points="-455.781,2174.581 -409.781,1946.581 -418.947,2155.581 		"/>
		<polyline points="-363.73,2172.581 -376.997,1973.581 -388.997,2183.581 		"/>
		<polyline points="-363.73,2141.581 -341.425,2057.081 -341.425,2155.581 		"/>
		<polyline points="-320.425,2190.581 -292.425,2078.581 -278.425,2174.581 		"/>
		<polyline points="-246.717,2172.581 -259.984,1973.581 -271.984,2183.581 		"/>
		<polyline points="-250.559,2192.581 -160.977,1964.581 -192.977,2183.581 		"/>
		<polyline points="-172.768,2152.581 -144.768,2040.581 -130.768,2136.581 		"/>
		<polyline points="-141.768,2192.581 -95.768,1964.581 -104.934,2173.581 		"/>
		<polyline points="-902.518,2151.081 -915.785,1952.081 -927.785,2162.081 		"/>
		<polyline points="-906.36,2171.081 -816.778,1943.081 -848.778,2162.081 		"/>
	</g>
</g>
<circle fill="#FFF200" cx="612.732" cy="229.729" r="181.284"/>
<g>
	<g>
		<defs>
			<rect id="SVGID_1_" x="404.483" y="42.804" width="374.615" height="384.451"/>
		</defs>
		<clipPath id="SVGID_2_">
			<use xlink:href="#SVGID_1_"  overflow="visible"/>
		</clipPath>
		<g clip-path="url(#SVGID_2_)">
			<g>
				<defs>
					<rect id="SVGID_3_" x="404.483" y="42.804" width="374.615" height="384.451"/>
				</defs>
				<defs>
					<rect id="SVGID_4_" x="404.483" y="42.804" width="374.615" height="384.451"/>
				</defs>
				<defs>
					<rect id="SVGID_5_" x="404.483" y="42.804" width="374.615" height="384.451"/>
				</defs>
				<defs>
					<rect id="SVGID_6_" x="404.483" y="42.804" width="374.615" height="384.451"/>
				</defs>
				<defs>
					<rect id="SVGID_7_" x="404.483" y="42.804" width="374.615" height="384.451"/>
				</defs>
				<clipPath id="SVGID_8_">
					<use xlink:href="#SVGID_3_"  overflow="visible"/>
				</clipPath>
				<clipPath id="SVGID_9_" clip-path="url(#SVGID_8_)">
					<use xlink:href="#SVGID_4_"  overflow="visible"/>
				</clipPath>
				<clipPath id="SVGID_10_" clip-path="url(#SVGID_9_)">
					<use xlink:href="#SVGID_5_"  overflow="visible"/>
				</clipPath>
				<clipPath id="SVGID_11_" clip-path="url(#SVGID_10_)">
					<use xlink:href="#SVGID_6_"  overflow="visible"/>
				</clipPath>
				<clipPath id="SVGID_12_" clip-path="url(#SVGID_11_)">
					<use xlink:href="#SVGID_7_"  overflow="visible"/>
				</clipPath>
				<path clip-path="url(#SVGID_12_)" d="M770.9,234.575c0,99.373-80.559,179.931-179.931,179.931
					c-99.373,0-179.93-80.558-179.93-179.931s80.557-179.93,179.93-179.93S770.9,135.202,770.9,234.575"/>
				<path clip-path="url(#SVGID_12_)" fill="#FFFFFF" d="M457.195,215.848c7.081-14.595,20.338-26.739,39.785-36.439
					c7.697-3.84,17.115-8.347,28.256-13.523c11.145-5.177,17.877-8.35,20.205-9.511l21.729-10.833
					c12.32,28.509,27.174,60.185,44.547,95.026c20.206,40.514,38.24,74.773,54.104,102.781l-29.17,14.547
					c-13.985-32.104-26.489-59.196-37.499-81.276c-2.635,1.567-5.826,3.281-9.57,5.15c-29.574,14.749-55.977,20.775-79.21,18.066
					c-23.228-2.707-40.603-15.605-52.121-38.699C450.475,245.543,450.123,230.445,457.195,215.848 M576.841,263.843
					c5.165-2.574,9.477-4.849,12.915-6.82c-17.426-34.943-29.9-60.844-37.428-77.708c-11.589,3.884-21.746,7.999-30.457,12.343
					c-35.552,17.73-46.836,39.611-33.854,65.642C501.556,284.441,531.162,286.623,576.841,263.843"/>
				<path clip-path="url(#SVGID_12_)" fill="none" stroke="#FFFFFF" stroke-width="10" stroke-miterlimit="10" d="M457.195,215.848
					c7.081-14.595,20.338-26.739,39.785-36.439c7.697-3.84,17.115-8.347,28.256-13.523c11.145-5.177,17.877-8.35,20.205-9.511
					l21.729-10.833c12.32,28.509,27.174,60.185,44.547,95.026c20.206,40.514,38.24,74.773,54.104,102.781l-29.17,14.547
					c-13.985-32.104-26.489-59.196-37.499-81.276c-2.635,1.567-5.826,3.281-9.57,5.15c-29.574,14.749-55.977,20.775-79.21,18.066
					c-23.228-2.707-40.603-15.605-52.121-38.699C450.475,245.543,450.123,230.445,457.195,215.848z M576.841,263.843
					c5.165-2.574,9.477-4.849,12.915-6.82c-17.426-34.943-29.9-60.844-37.428-77.708c-11.589,3.884-21.746,7.999-30.457,12.343
					c-35.552,17.73-46.836,39.611-33.854,65.642C501.556,284.441,531.162,286.623,576.841,263.843z"/>
				<path clip-path="url(#SVGID_12_)" fill="#FFFFFF" d="M681.506,127.646l-46.532,128.04l76.644,1.52l5.064,22.377l-98.546-2.368
					c-14.037,39.503-21.053,63.325-21.053,71.476h-34.296c0-4.187,14.604-40.378,43.802-108.57
					c29.202-68.189,43.801-105.684,43.801-112.474h15.401H681.506z"/>
				<path clip-path="url(#SVGID_12_)" fill="none" stroke="#FFFFFF" stroke-width="10" stroke-miterlimit="10" d="M681.506,127.646
					l-46.532,128.04l76.644,1.52l5.064,22.377l-98.546-2.368c-14.037,39.503-21.053,63.325-21.053,71.476h-34.296
					c0-4.187,14.604-40.378,43.802-108.57c29.202-68.189,43.801-105.684,43.801-112.474h15.401H681.506z"/>
			</g>
		</g>
	</g>
	
		<line fill="none" stroke="#FFFFFF" stroke-width="13" stroke-miterlimit="10" x1="892.008" y1="171.48" x2="837.571" y2="187.376"/>
	<line fill="none" stroke="#FFFFFF" stroke-width="13" stroke-miterlimit="10" x1="794.017" y1="20.452" x2="763.213" y2="59.149"/>
	
		<line fill="none" stroke="#FFFFFF" stroke-width="13" stroke-miterlimit="10" x1="867.66" y1="349.907" x2="823.229" y2="324.508"/>
</g>
<g enable-background="new    ">
	<path d="M317.403,322.654c0,4.2-1.8,8.4-4.8,9c-13.8,1.2-46.8,2.4-57.601,3c-1.2,25.201-1.8,48.601-2.4,69.602
		c0,5.399,2.4,6.6,6.6,7.8l24,4.2c1.8,0.6,3,5.399,3,7.8c0,0.6,0,1.2-1.799,1.2c-25.201-0.601-43.201-1.2-64.801-1.2
		c-34.2,0-60.001,0.6-73.802,1.2c-1.2,0-1.2-0.601-1.2-1.8c0-2.4,1.8-6.601,3.6-7.2l30-4.801c4.2-0.6,6.6-1.8,6.6-7.199
		c0-16.801-0.6-50.401-1.2-67.201c-25.201,0-107.401,0.601-152.402,0.601c-8.4,0-13.8-4.801-19.8-15.601c-1.8-4.2-4.8-10.8-4.8-13.2
		c0-1.8,0.6-3,1.8-4.2C60,233.254,121.801,147.453,167.402,83.852c9-12.601,16.2-15,30-15c16.2,0,40.201,1.8,60.001,5.399
		c3,0.601,4.2,1.8,4.2,3.601c0,35.4-6,228.002-6,237.602c19.8,1.801,46.801,3.601,60.601,4.2c1.2,0,1.2,0.601,1.2,2.4V322.654z
		 M70.201,298.054c7.8,1.8,15.6,2.399,20.4,3.6c31.2,3.601,73.201,8.4,92.401,9c0-18.6-1.2-156.602-1.2-166.201
		c0-10.2,0.6-32.4,1.2-51.001h-2.4c-6,11.4-12,21-15.601,28.2c-31.8,60.001-63,116.401-80.4,148.202
		c-4.8,7.8-10.8,17.399-15.601,25.8L70.201,298.054z"/>
</g>
<g enable-background="new    ">
	<path d="M1209.411,322.85c0,4.2-1.801,8.4-4.801,9c-13.799,1.2-46.8,2.4-57.6,3c-1.2,25.201-1.801,48.601-2.4,69.602
		c0,5.399,2.4,6.6,6.6,7.8l24.001,4.2c1.8,0.6,3,5.399,3,7.8c0,0.6,0,1.2-1.799,1.2c-25.2-0.601-43.2-1.2-64.802-1.2
		c-34.199,0-60,0.6-73.801,1.2c-1.2,0-1.2-0.601-1.2-1.8c0-2.4,1.8-6.601,3.601-7.2l30-4.801c4.199-0.6,6.6-1.8,6.6-7.199
		c0-16.801-0.6-50.401-1.199-67.201c-25.201,0-107.402,0.601-152.402,0.601c-8.4,0-13.8-4.801-19.801-15.601
		c-1.799-4.2-4.799-10.8-4.799-13.2c0-1.8,0.6-3,1.799-4.2c51.602-71.4,113.402-157.201,159.002-220.802c9-12.601,16.201-15,30-15
		c16.201,0,40.201,1.8,60.002,5.399c3,0.601,4.199,1.8,4.199,3.601c0,35.4-6,228.002-6,237.602
		c19.801,1.801,46.801,3.601,60.601,4.2c1.2,0,1.2,0.601,1.2,2.4V322.85z M962.208,298.251c7.801,1.8,15.601,2.399,20.4,3.6
		c31.201,3.601,73.201,8.4,92.401,9c0-18.6-1.2-156.602-1.2-166.201c0-10.2,0.6-32.4,1.2-51.001h-2.399
		c-6.001,11.4-12.001,21-15.602,28.2c-31.8,60.001-63,116.401-80.4,148.202c-4.8,7.8-10.8,17.399-15.6,25.8L962.208,298.251z"/>
</g>
</svg>
