<?xml version="1.0" encoding="utf-8"?>
<!-- Generator: Adobe Illustrator 16.0.0, SVG Export Plug-In . SVG Version: 6.00 Build 0)  -->
<!DOCTYPE svg PUBLIC "-//W3C//DTD SVG 1.1//EN" "http://www.w3.org/Graphics/SVG/1.1/DTD/svg11.dtd">
<svg version="1.1" id="Layer_1" xmlns="http://www.w3.org/2000/svg" xmlns:xlink="http://www.w3.org/1999/xlink" x="0px" y="0px"
	 width="5490.667px" height="2482px" viewBox="0 0 5490.667 2482" enable-background="new 0 0 5490.667 2482" xml:space="preserve">
<rect id="Background" fill="#262262" width="5495.334" height="2482"/>
<g id="Stars">
	<path d="M1505.682,1549.692"/>
	<path fill="none" stroke="#FFFFFF" stroke-width="10" stroke-miterlimit="10" d="M1540,1541.333"/>
	<path fill="none" stroke="#FFFFFF" stroke-width="10" stroke-miterlimit="10" d="M1432.667,1546.667"/>
	<path fill="none" stroke="#FFFFFF" stroke-width="10" stroke-miterlimit="10" d="M1533.682,1531.333"/>
	<path fill="none" stroke="#FFFFFF" stroke-width="10" stroke-miterlimit="10" d="M1433.682,1531.333"/>
	<path fill="#FFFFFF" d="M3534,1029c-6.449,0-6.449,10,0,10S3540.449,1029,3534,1029z"/>
	<path fill="#FFFFFF" d="M2756,1103c-6.449,0-6.449,10,0,10S2762.449,1103,2756,1103z"/>
	<path fill="#FFFFFF" d="M2980,1237c-6.449,0-6.449,10,0,10S2986.449,1237,2980,1237z"/>
	<path fill="#FFFFFF" d="M3156,1031c-6.449,0-6.449,10,0,10S3162.449,1031,3156,1031z"/>
	<path fill="#FFFFFF" d="M2644,1297c-6.449,0-6.449,10,0,10S2650.449,1297,2644,1297z"/>
	<path fill="#FFFFFF" d="M2918,1471c-6.449,0-6.449,10,0,10S2924.449,1471,2918,1471z"/>
	<path fill="#FFFFFF" d="M3290,1569c-6.449,0-6.449,10,0,10S3296.449,1569,3290,1569z"/>
	<path fill="#FFFFFF" d="M3212,1843c-6.449,0-6.449,10,0,10S3218.449,1843,3212,1843z"/>
	<path fill="#FFFFFF" d="M2986,1681c-6.449,0-6.449,10,0,10S2992.449,1681,2986,1681z"/>
	<path fill="#FFFFFF" d="M3496,807c-6.449,0-6.449,10,0,10S3502.449,807,3496,807z"/>
	<path fill="#FFFFFF" d="M2578,965c-6.449,0-6.449,10,0,10S2584.449,965,2578,965z"/>
	<path fill="#FFFFFF" d="M2942,903c-6.449,0-6.449,10,0,10S2948.449,903,2942,903z"/>
	<path fill="#FFFFFF" d="M3874,969c-6.449,0-6.449,10,0,10S3880.449,969,3874,969z"/>
	<path fill="#FFFFFF" d="M3348,1369c-6.449,0-6.449,10,0,10S3354.449,1369,3348,1369z"/>
	<path fill="#FFFFFF" d="M3998,1257c-6.449,0-6.449,10,0,10S4004.449,1257,3998,1257z"/>
	<path fill="#FFFFFF" d="M3748,1127c-6.449,0-6.449,10,0,10S3754.449,1127,3748,1127z"/>
	<path fill="#FFFFFF" d="M3750,1551c-6.449,0-6.449,10,0,10S3756.449,1551,3750,1551z"/>
	<path fill="#FFFFFF" d="M3160,2183c-6.449,0-6.449,10,0,10S3166.449,2183,3160,2183z"/>
	<path fill="#FFFFFF" d="M3412,1955c-6.449,0-6.449,10,0,10S3418.449,1955,3412,1955z"/>
	<path fill="#FFFFFF" d="M3372,1817c-6.449,0-6.449,10,0,10S3378.449,1817,3372,1817z"/>
	<path fill="#FFFFFF" d="M2600,2087c-6.449,0-6.449,10,0,10S2606.449,2087,2600,2087z"/>
	<path fill="#FFFFFF" d="M2788,1985c-6.449,0-6.449,10,0,10S2794.449,1985,2788,1985z"/>
	<path fill="#FFFFFF" d="M2448,1681c-6.449,0-6.449,10,0,10S2454.449,1681,2448,1681z"/>
	<path fill="#FFFFFF" d="M3354,1001c-6.449,0-6.449,10,0,10S3360.449,1001,3354,1001z"/>
	<path fill="#FFFFFF" d="M2200,1427c-6.448,0-6.448,10,0,10S2206.448,1427,2200,1427z"/>
	<path fill="#FFFFFF" d="M1462,1447c-6.449,0-6.449,10,0,10S1468.449,1447,1462,1447z"/>
	<path fill="#FFFFFF" d="M1974,1691c-6.448,0-6.448,10,0,10S1980.448,1691,1974,1691z"/>
	<path fill="#FFFFFF" d="M1604,1745c-6.449,0-6.449,10,0,10C1610.448,1755,1610.448,1745,1604,1745z"/>
	<path fill="#FFFFFF" d="M2188,1843c-6.448,0-6.448,10,0,10S2194.448,1843,2188,1843z"/>
	<path fill="#FFFFFF" d="M1993.856,1080.698c-6.448,0-6.448,10,0,10S2000.305,1080.698,1993.856,1080.698z"/>
	<path fill="#FFFFFF" d="M1576.815,1047.695c-6.449,0-6.449,10,0,10S1583.264,1047.695,1576.815,1047.695z"/>
	<path fill="#FFFFFF" d="M2995.957,546.645c-6.449,0-6.449,10,0,10S3002.406,546.645,2995.957,546.645z"/>
	<path fill="#FFFFFF" d="M3740.031,459.636c-6.449,0-6.449,10,0,10S3746.48,459.636,3740.031,459.636z"/>
	<path fill="#FFFFFF" d="M3316.989,432.633c-6.448,0-6.448,10,0,10S3323.438,432.633,3316.989,432.633z"/>
	<path fill="#FFFFFF" d="M2695.927,177.608c-6.448,0-6.448,10,0,10S2702.375,177.608,2695.927,177.608z"/>
	<path fill="#FFFFFF" d="M2623.92,618.652c-6.449,0-6.449,10,0,10S2630.369,618.652,2623.92,618.652z"/>
	<path fill="#FFFFFF" d="M1210.778,873.678c-6.449,0-6.449,10,0,10S1217.227,873.678,1210.778,873.678z"/>
	<path fill="#FFFFFF" d="M1165.774,1521.742c-6.449,0-6.449,10,0,10S1172.223,1521.742,1165.774,1521.742z"/>
	<path fill="#FFFFFF" d="M1774.835,1305.721c-6.448,0-6.448,10,0,10S1781.283,1305.721,1774.835,1305.721z"/>
	<path fill="#FFFFFF" d="M2305.888,1092.699c-6.448,0-6.448,10,0,10S2312.336,1092.699,2305.888,1092.699z"/>
	<path fill="#FFFFFF" d="M1852.843,810.671c-6.448,0-6.448,10,0,10S1859.291,810.671,1852.843,810.671z"/>
	<path fill="#FFFFFF" d="M1087.766,258.616c-6.449,0-6.449,10,0,10S1094.215,258.616,1087.766,258.616z"/>
	<path fill="#FFFFFF" d="M1897.848,117.602c-6.448,0-6.448,10,0,10S1904.296,117.602,1897.848,117.602z"/>
	<path fill="#FFFFFF" d="M848,1269c-6.449,0-6.449,10,0,10S854.449,1269,848,1269z"/>
	<path fill="#FFFFFF" d="M684,721c-6.449,0-6.449,10,0,10S690.449,721,684,721z"/>
	<path fill="#FFFFFF" d="M260,353c-6.449,0-6.449,10,0,10S266.449,353,260,353z"/>
	<path fill="#FFFFFF" d="M328,1349c-6.449,0-6.449,10,0,10S334.449,1349,328,1349z"/>
	<path fill="#FFFFFF" d="M340,993c-6.449,0-6.449,10,0,10S346.449,993,340,993z"/>
	<path fill="#FFFFFF" d="M788,1837c-6.449,0-6.449,10,0,10S794.449,1837,788,1837z"/>
	<path fill="#FFFFFF" d="M244,1913c-6.449,0-6.449,10,0,10S250.449,1913,244,1913z"/>
	<path fill="#FFFFFF" d="M548,1569c-6.449,0-6.449,10,0,10S554.449,1569,548,1569z"/>
	<path fill="#FFFFFF" d="M4116,117c-6.449,0-6.449,10,0,10S4122.449,117,4116,117z"/>
	<path fill="#FFFFFF" d="M4108,605c-6.449,0-6.449,10,0,10S4114.449,605,4108,605z"/>
	<path fill="#FFFFFF" d="M4216,1057c-6.449,0-6.449,10,0,10S4222.449,1057,4216,1057z"/>
	<path fill="#FFFFFF" d="M4656,565c-6.449,0-6.449,10,0,10S4662.449,565,4656,565z"/>
	<path fill="#FFFFFF" d="M4400,337c-6.449,0-6.449,10,0,10S4406.449,337,4400,337z"/>
	<path fill="#FFFFFF" d="M4380,857c-6.449,0-6.449,10,0,10S4386.449,857,4380,857z"/>
	<path fill="#FFFFFF" d="M5220,229c-6.449,0-6.449,10,0,10S5226.449,229,5220,229z"/>
	<path fill="#FFFFFF" d="M5016,861c-6.449,0-6.449,10,0,10S5022.449,861,5016,861z"/>
	<path fill="#FFFFFF" d="M4896,281c-6.449,0-6.449,10,0,10S4902.449,281,4896,281z"/>
	<path fill="#FFFFFF" d="M5416,1461c-6.449,0-6.449,10,0,10S5422.449,1461,5416,1461z"/>
	<path fill="#FFFFFF" d="M5256,1005c-6.449,0-6.449,10,0,10S5262.449,1005,5256,1005z"/>
	<path fill="#FFFFFF" d="M5328,573c-6.449,0-6.449,10,0,10S5334.449,573,5328,573z"/>
	<path fill="#FFFFFF" d="M5068,617c-6.449,0-6.449,10,0,10S5074.449,617,5068,617z"/>
	<path fill="#FFFFFF" d="M5120,1277c-6.449,0-6.449,10,0,10S5126.449,1277,5120,1277z"/>
	<path fill="#FFFFFF" d="M5428,1912c-2.726,0-5,2.274-5,5v4c0,2.726,2.274,5,5,5s5-2.274,5-5v-4
		C5433,1914.274,5430.726,1912,5428,1912z"/>
	<path fill="#FFFFFF" d="M3656,269c-6.449,0-6.449,10,0,10S3662.449,269,3656,269z"/>
	<path fill="#FFFFFF" d="M1120,1225c-6.449,0-6.449,10,0,10S1126.449,1225,1120,1225z"/>
	<path fill="#FFFFFF" d="M604,1009c-6.449,0-6.449,10,0,10S610.449,1009,604,1009z"/>
	<path fill="#FFFFFF" d="M3008,281c-6.449,0-6.449,10,0,10S3014.449,281,3008,281z"/>
	<path fill="#FFFFFF" d="M344,625c-6.449,0-6.449,10,0,10S350.449,625,344,625z"/>
	<path fill="#FFFFFF" d="M1012,701c-6.449,0-6.449,10,0,10S1018.449,701,1012,701z"/>
</g>
<g id="Ground_1_" display="none">
	<polygon id="Ground" display="inline" fill="#BCBEC0" points="-29.031,2383.75 2192.836,2359 2167.575,2482 -10.622,2482 	"/>
	<g id="Mountain" display="inline">
		<path fill="#BCBEC0" d="M4060.029,2463.5h1423.207c0,0-415.665-1156.648-687.07-1428.305
			c-245.651-245.879-747.233,418.403-736.137,393.305"/>
		<path fill="#BCBEC0" d="M2158.575,2482H4063l-2-1053c0,0-676.998,720.097-754.994,801.093s-332.983,277.485-708.965,30.498
			L2273,2004.12"/>
		<path fill="#E6E7E8" d="M2167.575,2482H4062V1446c0,0-676.998,720.097-754.994,801.093s-332.983,277.485-707.965,31.498
			L2275,2022.12"/>
		<path fill="#E6E7E8" d="M4060.029,2481h1423.207c0,0-415.665-1156.648-687.07-1428.305
			C4549.697,805.998,4049.75,1469.25,4060.029,1446"/>
	</g>
</g>
<g id="Shmulik" display="none">
	<g display="inline">
		<polygon fill="#F79521" points="3648.579,1806.66 3633.971,1786.067 3664.778,1742.383 3706.554,1732.317 		"/>
		
			<rect x="3593.863" y="1780.379" transform="matrix(0.7885 0.6151 -0.6151 0.7885 1869.7743 -1848.5276)" fill="#E9262A" width="57.005" height="27.45"/>
	</g>
	<g display="inline">
		<path fill="#F79521" d="M3639.355,1618.326c12.673,31.063-0.694,106.264-69.392,134.295l-6.524-15.998
			c72.861-29.733,52.025-94.499,52.025-94.499L3639.355,1618.326z"/>
		
			<ellipse transform="matrix(-0.378 -0.9258 0.9258 -0.378 3302.3643 5707.4307)" fill="#FDC888" cx="3568.551" cy="1744.311" rx="11.519" ry="12.81"/>
	</g>
	<g display="inline">
		<path d="M3531.48,1913.648c-16.224-9.956-21.753-15.956-30.054-23.455c-20.972-18.943-52.98-67.027-56.745-87.782
			c-3.762-20.753,1.951-39.544,17.145-56.363c22.494-24.903,48.4-30.631,78.808-30.266c37.011,0.445,106.437,21.496,138.327,50.302
			c4.043,3.652,7.441,6.915,10.19,9.8c21.51-23.813,98.193-107.395,126.929-142.725l30.435,23.613
			c-27.998,34.775-147.803,157.97-181.548,195.429c-31.599,35.076-45.045,48.05-66.591,63.399
			C3575.45,1931.935,3547.278,1923.342,3531.48,1913.648z M3503.918,1765.617c-32.661,36.81,0.547,92.351,32.883,114.916
			c14.244,9.939,22.744,9.651,34.857,7.983c12.115-1.667,58.229-50.681,92.267-88.362c-3.623-3.673-8.222-8.024-13.794-13.055
			C3600.874,1742.606,3540.224,1724.699,3503.918,1765.617z"/>
	</g>
	<g display="inline">
		<polygon fill="#F79521" points="3704.736,1784.853 3691.274,1763.359 3720.473,1729.271 3757.217,1720.449 		"/>
		
			<rect x="3650.49" y="1757.703" transform="matrix(0.7716 0.6361 -0.6361 0.7716 1966.9215 -1935.5586)" fill="#E9262A" width="57.004" height="27.451"/>
	</g>
	<g display="inline">
		<g>
			<polygon fill="#E9262A" points="3757.217,1720.449 3664.494,1742.708 3654.897,1724.883 3744.917,1700.813 			"/>
			<polygon fill="#F79521" points="3746.385,1703.328 3654.897,1724.883 3618.189,1666.274 3611.601,1633.692 3666.734,1599.767 
				3691.411,1615.561 			"/>
		</g>
		<g>
			<path fill="#E9262A" d="M3718.672,1690.045c0.311,0.496,0.396,0.869,0.259,1.121c-0.052,0.129-0.342,0.394-0.881,0.796
				c-1.353,1.044-3.695,1.813-6.315,3.455c-3.706,2.32-6.643,2.471-7.381,2.735c-0.737,0.266-1.26,0.15-1.571-0.345
				c-1.169-1.865-1.76-3.007-3.924-6.859c-2.168-3.852-2.402-4.423-3.57-6.288c-0.578-0.92-1.171-1.288-1.778-1.105
				c-0.919,0.314-4.096,1.009-10.151,2.914c-6.134,1.928-8.851,3.154-9.559,3.86c-0.444,0.445-0.37,1.138,0.217,2.081
				c1.221,1.945,0.889,1.314,3.565,5.298c2.417,3.596,1.695,2.313,2.85,4.153c0.441,0.708,0.384,1.323-0.179,1.838
				c-0.669,0.615-3.126,1.843-7.239,3.237c-3.454,1.171-6.693,0.911-7.655,1.315c-0.757,0.311-1.328,0.16-1.713-0.454
				c-1.597-2.549,0.771,0.958-2.202-4.342c-2.976-5.301-2.404-4.664-4.017-7.236c-1.714-2.738-4.409-6.777-8.079-12.115
				c-3.677-5.34-8.874-13.379-10.591-16.118c-0.325-0.518-0.238-0.934,0.257-1.244c0.73-0.458,2.215-0.542,3.734-1.396
				c1.521-0.854,2.866-1.362,3.634-1.679c0.825-0.343,1.691-0.795,3.629-1.41c2.489-0.793,3.304-0.81,4.246-1.083
				c0.453-0.134,0.733-0.166,1,0.259c1.109,1.77,0.849,1.644,2.8,5.334c1.95,3.691,4.553,8.137,5.662,9.906
				c0.518,0.827,1.044,1.17,1.582,1.031c0.731-0.195,3.615-1.609,10.315-3.679c6.711-2.074,9.349-2.805,10.032-3.496
				c0.479-0.497,0.457-1.157-0.059-1.984c-1.066-1.699-3.831-5.928-6.146-9.259c-2.315-3.331-4.012-5.856-5.092-7.58
				c-0.457-0.731-0.393-1.283,0.197-1.652c0.686-0.429,1.968-0.809,3.56-1.285c1.617-0.483,2.79-1.062,3.592-1.307
				c1.055-0.321,2.347-0.704,3.809-1.273c1.547-0.603,2.381-0.961,3.434-1.17c0.794-0.158,1.206-0.361,1.559,0.206
				c1.7,2.713,2.362,4.023,5.569,9.637c3.205,5.616,5.664,9.792,7.379,12.53c1.612,2.573,4.152,6.354,7.622,11.344
				C3714.543,1683.727,3717.075,1687.496,3718.672,1690.045z"/>
		</g>
	</g>
	<g display="inline">
		<g>
			<circle fill="#FDC888" cx="3595.708" cy="1546.529" r="88.764"/>
			<path d="M3548.908,1470.935c-36.011,21.707-50.718,66.25-37.498,104.447l98.69-61.631l55.121,88.006
				c23.015-28.644,26.634-69.816,6.028-102.713C3645.229,1457.499,3592.024,1444.945,3548.908,1470.935z"/>
		</g>
		<g>
			<g>
				<path fill="#FFFFFF" d="M3608.375,1537.746c7.487,11.953,3.863,27.719-8.088,35.205c-11.955,7.488-27.715,3.864-35.202-8.09
					c-7.489-11.959-3.866-27.71,8.09-35.199C3585.126,1522.175,3600.887,1525.788,3608.375,1537.746z"/>
				<path d="M3587.701,1565.493c1.627,2.598,0.837,6.018-1.76,7.643c-2.598,1.628-6.02,0.847-7.646-1.751
					c-1.631-2.599-0.842-6.024,1.758-7.652C3582.648,1562.107,3586.073,1562.893,3587.701,1565.493z"/>
			</g>
			<g>
				<path fill="#FFFFFF" d="M3553.042,1574.099c7.488,11.954,3.868,27.714-8.09,35.204c-11.955,7.487-27.715,3.866-35.203-8.088
					c-7.487-11.954-3.865-27.711,8.09-35.199C3529.798,1558.526,3545.556,1562.144,3553.042,1574.099z"/>
				<path d="M3539.954,1595.396c1.627,2.6,0.841,6.02-1.757,7.647c-2.599,1.626-6.018,0.842-7.646-1.757
					c-1.626-2.596-0.845-6.023,1.755-7.649C3534.901,1592.01,3538.327,1592.801,3539.954,1595.396z"/>
			</g>
		</g>
		<g>
			<g>
				<path fill="#F16C4F" d="M3626.525,1597.263c7.2,11.497,7.685,24.182,1.084,28.317l-33.714,21.117
					c-6.602,4.135-17.803-1.839-25.007-13.335l0,0c-7.2-11.498-7.684-24.183-1.084-28.318l33.715-21.117
					C3608.123,1579.791,3619.322,1585.765,3626.525,1597.263L3626.525,1597.263z"/>
			</g>
			<path fill="#E9262A" d="M3616.338,1603.912c3.965,6.328,3.625,13.691-0.758,16.437l-22.386,14.022
				c-4.386,2.745-11.157-0.163-15.118-6.491l0,0c-3.965-6.329-3.627-13.692,0.757-16.438l22.384-14.021
				C3605.602,1594.676,3612.375,1597.583,3616.338,1603.912L3616.338,1603.912z"/>
		</g>
	</g>
	<g display="inline">
		<path fill="#F79521" d="M3666.734,1599.767c8.43-1.655,25.321,4.956,26.676,18.139c2.76,26.848-26.235,91.368-63.24,124.636
			l-11.55-12.852c58.525-52.612,46.549-119.989,46.549-119.989L3666.734,1599.767z"/>
		
			<ellipse transform="matrix(-0.6686 -0.7437 0.7437 -0.6686 4759.8384 5591.8164)" fill="#FDC888" cx="3626.03" cy="1735.2" rx="11.521" ry="12.811"/>
	</g>
	<g display="inline">
		
			<line fill="none" stroke="#FFFFFF" stroke-width="6" stroke-miterlimit="10" x1="3755.761" y1="1399.913" x2="3845.06" y2="1223.134"/>
		
			<line fill="none" stroke="#FFFFFF" stroke-width="6" stroke-miterlimit="10" x1="3845.06" y1="1495.583" x2="3942.957" y2="1379.043"/>
		
			<line fill="none" stroke="#FFFFFF" stroke-width="6" stroke-miterlimit="10" x1="3751.462" y1="1495.583" x2="3849.359" y2="1379.043"/>
	</g>
</g>
<g id="Death" display="none">
	<g display="inline">
		<g>
			<path fill="#808285" d="M1528.479,2362.447c0,0,98.005-417.788,96.309-457.944l28.991,6.097c0,0-105.642,419.214-95.28,453.042"
				/>
			<path fill="#BCBEC0" d="M1651.228,1922.727c0,0,175.438,35.991,155.398,131.276c0,0,1.594-51.719-163.647-92.062"/>
		</g>
		<path fill="#F1F2F2" d="M1786.898,2002.284c0,0-32.037-39.341-56.314-40.843
			C1721.65,1960.888,1786.898,2002.284,1786.898,2002.284z"/>
	</g>
	<g display="inline">
		<path fill="#414042" d="M1479.783,2392.225c0,0,92.058-296.237,20.064-372.952c-62.833-66.954-157.561-30.686-183.526-15.343
			c-25.965,15.343-29.541,24.866-33.047,50.75c-12.392,91.468,18.693,296.956,34.227,341.088c0,0,10.901-5.988,21.08-5.102
			c10.18,0.885-2.213,4.889-6.639,5.102c-4.426,0.211,40.718,8.178,39.391-9.973c-1.328-18.143,23.458,3.543,18.589,7.086
			c-4.87,3.539,21.687-8.852,26.997-5.313c5.312,3.543,19.917,6.738,12.835,8.236c-7.081,1.5,27.522,8.275,14.163-13.992
			C1437.279,2370.75,1479.783,2392.225,1479.783,2392.225z"/>
		<g>
			<path d="M1305.414,2123.75c0,39.51,44.98,57.856,44.98,57.856l0.449,34.497l34.079,0.098l-0.531-33.937l6.727,0.47l1.328,33.369
				h30.981l1.327-33.812h7.524l1.327,33.812l32.752-1.061c0,0-0.982-38.896,1.147-39.348c25.26-5.353,40.613-23.057,40.613-51.945
				c0-66.175-45.377-109.198-101.352-109.198C1350.791,2014.552,1305.414,2057.575,1305.414,2123.75z"/>
			<g>
				<path fill="#FFFFFF" d="M1337.1,2089.379c0,17.208,13.95,23.528,31.159,23.528c17.208,0,34.806-5.087,31.159-23.528
					c-3.336-16.882-13.951-31.159-31.157-31.159C1351.05,2058.22,1337.1,2072.17,1337.1,2089.379z"/>
				<path fill="#FFFFFF" d="M1476.435,2089.379c0,17.208-13.95,23.528-31.16,23.528c-17.208,0-34.807-5.087-31.16-23.528
					c3.338-16.882,13.95-31.159,31.159-31.159S1476.435,2072.17,1476.435,2089.379z"/>
			</g>
		</g>
		<path d="M1493.484,2216.364c0,0,81.387,39.837,87.691,42.937c6.305,3.1-1.719,44.421-10.022,40.352
			c-8.304-4.07-77.669-38.077-77.669-38.077"/>
		<path fill="#414042" d="M1415.622,2002.284c0,0-9.653,27.605-21.806,29.194c-2.48,0.325-15.22,9.892-22.984,19.805
			c0,0,6.463,3.7,1.354,11.836c0,0-6.277-3.959-6.957,10.687c-0.189,4.084-5.314-7.606-7.688-4.043
			c-4.926,7.391-11.323,4.658-14.277,15.801c-1.459,5.506-3.797,4.131-10.83,8.056c0,0-3.212,4.639-3.903,7.394
			c-12.018,47.916-37.251,83.869-34.75,88.253C1302.403,2204.385,1249.712,1986.27,1415.622,2002.284z"/>
	</g>
</g>
<g id="Thorns" display="none">
	<g display="inline">
		<polyline points="1205.322,2440 1271.322,2133 1301.322,2459 		"/>
		<polyline points="1315.322,2419 1343.322,2307 1357.322,2403 		"/>
		<polyline points="1407.018,2419 1429.322,2334.5 1429.322,2433 		"/>
		<polyline points="1346.322,2459 1392.322,2231 1383.156,2440 		"/>
		<polyline points="1470.373,2439 1457.106,2240 1445.106,2450 		"/>
		<polyline points="1466.531,2459 1556.114,2231 1524.114,2450 		"/>
		<polyline points="1544.322,2419 1572.322,2307 1586.322,2403 		"/>
		<polyline points="1575.322,2459 1621.322,2231 1612.156,2440 		"/>
		<polyline points="1667.373,2457 1654.106,2258 1642.106,2468 		"/>
		<polyline points="1667.373,2426 1689.678,2341.5 1689.678,2440 		"/>
		<polyline points="1710.678,2475 1738.678,2363 1752.678,2459 		"/>
		<polyline points="1784.386,2457 1771.119,2258 1759.119,2468 		"/>
		<polyline points="1780.544,2477 1870.126,2249 1838.126,2468 		"/>
		<polyline points="1858.335,2437 1886.335,2325 1900.335,2421 		"/>
		<polyline points="1889.335,2477 1935.335,2249 1926.169,2458 		"/>
		<polyline points="1128.585,2435.5 1115.318,2236.5 1103.318,2446.5 		"/>
		<polyline points="1124.743,2455.5 1214.325,2227.5 1182.325,2446.5 		"/>
	</g>
	<g display="inline">
		<polyline points="357.753,2431 423.753,2124 453.753,2450 		"/>
		<polyline points="467.753,2410 495.753,2298 509.753,2394 		"/>
		<polyline points="559.449,2410 581.753,2325.5 581.753,2424 		"/>
		<polyline points="498.753,2450 544.753,2222 535.587,2431 		"/>
		<polyline points="622.804,2430 609.538,2231 597.538,2441 		"/>
		<polyline points="618.962,2450 708.544,2222 676.544,2441 		"/>
		<polyline points="696.753,2410 724.753,2298 738.753,2394 		"/>
		<polyline points="727.753,2450 773.753,2222 764.587,2431 		"/>
		<polyline points="819.804,2448 806.538,2249 794.538,2459 		"/>
		<polyline points="819.804,2417 842.109,2332.5 842.109,2431 		"/>
		<polyline points="863.109,2466 891.109,2354 905.109,2450 		"/>
		<polyline points="936.817,2448 923.55,2249 911.55,2459 		"/>
		<polyline points="932.975,2468 1022.557,2240 990.557,2459 		"/>
		<polyline points="1010.766,2428 1038.766,2316 1052.766,2412 		"/>
		<polyline points="1041.766,2468 1087.766,2240 1078.6,2449 		"/>
		<polyline points="281.016,2426.5 267.75,2227.5 255.75,2437.5 		"/>
		<polyline points="277.174,2446.5 366.756,2218.5 334.756,2437.5 		"/>
	</g>
</g>
<g id="_x34_04" display="none">
	<g display="inline">
		<circle fill="#FFF200" cx="1796.267" cy="505.148" r="181.284"/>
		<g>
			<g>
				<defs>
					<rect id="SVGID_1_" x="1588.017" y="318.223" width="374.615" height="384.451"/>
				</defs>
				<clipPath id="SVGID_2_">
					<use xlink:href="#SVGID_1_"  overflow="visible"/>
				</clipPath>
				<g clip-path="url(#SVGID_2_)">
					<defs>
						<rect id="SVGID_3_" x="1588.017" y="318.223" width="374.615" height="384.451"/>
					</defs>
					<clipPath id="SVGID_4_">
						<use xlink:href="#SVGID_3_"  overflow="visible"/>
					</clipPath>
					<path clip-path="url(#SVGID_4_)" d="M1954.435,509.994c0,99.373-80.558,179.93-179.93,179.93
						c-99.373,0-179.93-80.557-179.93-179.93s80.557-179.93,179.93-179.93C1873.877,330.064,1954.435,410.621,1954.435,509.994"/>
					<path clip-path="url(#SVGID_4_)" fill="#FFFFFF" d="M1640.729,491.267c7.081-14.594,20.338-26.739,39.785-36.439
						c7.698-3.84,17.116-8.347,28.256-13.524c11.145-5.176,17.877-8.349,20.205-9.51l21.729-10.833
						c12.32,28.508,27.174,60.184,44.547,95.026c20.206,40.514,38.24,74.773,54.104,102.781l-29.17,14.547
						c-13.985-32.104-26.489-59.196-37.499-81.276c-2.634,1.567-5.826,3.281-9.57,5.15c-29.574,14.749-55.977,20.775-79.21,18.066
						c-23.228-2.706-40.603-15.605-52.121-38.699C1634.009,520.962,1633.657,505.864,1640.729,491.267 M1760.375,539.262
						c5.165-2.575,9.476-4.849,12.915-6.821c-17.426-34.943-29.901-60.844-37.428-77.708c-11.589,3.884-21.746,7.999-30.457,12.343
						c-35.552,17.73-46.836,39.611-33.854,65.642C1685.09,559.86,1714.696,562.042,1760.375,539.262"/>
					<path clip-path="url(#SVGID_4_)" fill="none" stroke="#FFFFFF" stroke-width="10" stroke-miterlimit="10" d="M1640.729,491.267
						c7.081-14.594,20.338-26.739,39.785-36.439c7.698-3.84,17.116-8.347,28.256-13.524c11.145-5.176,17.877-8.349,20.205-9.51
						l21.729-10.833c12.32,28.508,27.174,60.184,44.547,95.026c20.206,40.514,38.24,74.773,54.104,102.781l-29.17,14.547
						c-13.985-32.104-26.489-59.196-37.499-81.276c-2.634,1.567-5.826,3.281-9.57,5.15c-29.574,14.749-55.977,20.775-79.21,18.066
						c-23.228-2.706-40.603-15.605-52.121-38.699C1634.009,520.962,1633.657,505.864,1640.729,491.267z M1760.375,539.262
						c5.165-2.575,9.476-4.849,12.915-6.821c-17.426-34.943-29.901-60.844-37.428-77.708c-11.589,3.884-21.746,7.999-30.457,12.343
						c-35.552,17.73-46.836,39.611-33.854,65.642C1685.09,559.86,1714.696,562.042,1760.375,539.262z"/>
					<path clip-path="url(#SVGID_4_)" fill="#FFFFFF" d="M1865.04,403.065l-46.532,128.04l76.643,1.52l5.065,22.377l-98.546-2.368
						c-14.037,39.502-21.053,63.325-21.053,71.475h-34.296c0-4.187,14.604-40.378,43.802-108.57
						c29.202-68.19,43.801-105.684,43.801-112.474h15.401H1865.04z"/>
					<path clip-path="url(#SVGID_4_)" fill="none" stroke="#FFFFFF" stroke-width="10" stroke-miterlimit="10" d="M1865.04,403.065
						l-46.532,128.04l76.643,1.52l5.065,22.377l-98.546-2.368c-14.037,39.502-21.053,63.325-21.053,71.475h-34.296
						c0-4.187,14.604-40.378,43.802-108.57c29.202-68.19,43.801-105.684,43.801-112.474h15.401H1865.04z"/>
				</g>
			</g>
		</g>
		
			<line fill="#FFFFFF" stroke="#FFFFFF" stroke-width="13" stroke-miterlimit="10" x1="2075.542" y1="446.899" x2="2021.105" y2="462.795"/>
		
			<line fill="#FFFFFF" stroke="#FFFFFF" stroke-width="13" stroke-miterlimit="10" x1="1977.551" y1="295.871" x2="1946.747" y2="334.568"/>
		
			<line fill="#FFFFFF" stroke="#FFFFFF" stroke-width="13" stroke-miterlimit="10" x1="2051.194" y1="625.326" x2="2006.763" y2="599.926"/>
	</g>
	<text transform="matrix(1 0 0 1 1183.5342 686.4326)" display="inline" font-family="'NuevaStd-Bold'" font-size="600">4</text>
	<text transform="matrix(1 0 0 1 2075.542 699.6699)" display="inline" font-family="'NuevaStd-Bold'" font-size="600">4</text>
</g>
</svg>
