<?xml version="1.0" encoding="utf-8"?>
<!-- Generator: Adobe Illustrator 16.0.0, SVG Export Plug-In . SVG Version: 6.00 Build 0)  -->
<!DOCTYPE svg PUBLIC "-//W3C//DTD SVG 1.1//EN" "http://www.w3.org/Graphics/SVG/1.1/DTD/svg11.dtd">
<svg version="1.1" id="Layer_1" xmlns="http://www.w3.org/2000/svg" xmlns:xlink="http://www.w3.org/1999/xlink" x="0px" y="0px"
	 width="5490.667px" height="1516.258px" viewBox="0 0 5490.667 1516.258" enable-background="new 0 0 5490.667 1516.258"
	 xml:space="preserve">
<rect id="Background" y="-965.742" display="none" fill="#262262" width="5495.334" height="2482"/>
<g id="Stars" display="none">
	<g display="inline">
		
			<line fill="none" stroke="#FFFFFF" stroke-width="6" stroke-miterlimit="10" x1="3755.761" y1="434.171" x2="3845.06" y2="257.393"/>
		
			<line fill="none" stroke="#FFFFFF" stroke-width="6" stroke-miterlimit="10" x1="3845.06" y1="529.842" x2="3942.957" y2="413.302"/>
		
			<line fill="none" stroke="#FFFFFF" stroke-width="6" stroke-miterlimit="10" x1="3751.462" y1="529.842" x2="3849.359" y2="413.302"/>
	</g>
	<path display="inline" d="M1505.682,583.95"/>
	<path display="inline" fill="none" stroke="#FFFFFF" stroke-width="10" stroke-miterlimit="10" d="M1540,575.592"/>
	<path display="inline" fill="none" stroke="#FFFFFF" stroke-width="10" stroke-miterlimit="10" d="M1432.667,580.925"/>
	<path display="inline" fill="none" stroke="#FFFFFF" stroke-width="10" stroke-miterlimit="10" d="M1533.682,565.592"/>
	<path display="inline" fill="none" stroke="#FFFFFF" stroke-width="10" stroke-miterlimit="10" d="M1433.682,565.592"/>
	<path display="inline" fill="#FFFFFF" d="M3534,63.258c-6.449,0-6.449,10,0,10S3540.449,63.258,3534,63.258z"/>
	<path display="inline" fill="#FFFFFF" d="M2756,137.258c-6.449,0-6.449,10,0,10S2762.449,137.258,2756,137.258z"/>
	<path display="inline" fill="#FFFFFF" d="M2980,271.258c-6.449,0-6.449,10,0,10S2986.449,271.258,2980,271.258z"/>
	<path display="inline" fill="#FFFFFF" d="M3156,65.258c-6.449,0-6.449,10,0,10S3162.449,65.258,3156,65.258z"/>
	<path display="inline" fill="#FFFFFF" d="M2644,331.258c-6.449,0-6.449,10,0,10S2650.449,331.258,2644,331.258z"/>
	<path display="inline" fill="#FFFFFF" d="M2918,505.258c-6.449,0-6.449,10,0,10S2924.449,505.258,2918,505.258z"/>
	<path display="inline" fill="#FFFFFF" d="M3290,603.258c-6.449,0-6.449,10,0,10S3296.449,603.258,3290,603.258z"/>
	<path display="inline" fill="#FFFFFF" d="M3212,877.258c-6.449,0-6.449,10,0,10S3218.449,877.258,3212,877.258z"/>
	<path display="inline" fill="#FFFFFF" d="M2986,715.258c-6.449,0-6.449,10,0,10S2992.449,715.258,2986,715.258z"/>
	<path display="inline" fill="#FFFFFF" d="M3496-158.742c-6.449,0-6.449,10,0,10S3502.449-158.742,3496-158.742z"/>
	<path display="inline" fill="#FFFFFF" d="M2578-0.742c-6.449,0-6.449,10,0,10S2584.449-0.742,2578-0.742z"/>
	<path display="inline" fill="#FFFFFF" d="M2942-62.742c-6.449,0-6.449,10,0,10S2948.449-62.742,2942-62.742z"/>
	<path display="inline" fill="#FFFFFF" d="M3874,3.258c-6.449,0-6.449,10,0,10S3880.449,3.258,3874,3.258z"/>
	<path display="inline" fill="#FFFFFF" d="M3348,403.258c-6.449,0-6.449,10,0,10S3354.449,403.258,3348,403.258z"/>
	<path display="inline" fill="#FFFFFF" d="M3998,291.258c-6.449,0-6.449,10,0,10S4004.449,291.258,3998,291.258z"/>
	<path display="inline" fill="#FFFFFF" d="M3748,161.258c-6.449,0-6.449,10,0,10S3754.449,161.258,3748,161.258z"/>
	<path display="inline" fill="#FFFFFF" d="M3750,585.258c-6.449,0-6.449,10,0,10S3756.449,585.258,3750,585.258z"/>
	<path display="inline" fill="#FFFFFF" d="M3160,1217.258c-6.449,0-6.449,10,0,10S3166.449,1217.258,3160,1217.258z"/>
	<path display="inline" fill="#FFFFFF" d="M3412,989.258c-6.449,0-6.449,10,0,10S3418.449,989.258,3412,989.258z"/>
	<path display="inline" fill="#FFFFFF" d="M3372,851.258c-6.449,0-6.449,10,0,10S3378.449,851.258,3372,851.258z"/>
	<path display="inline" fill="#FFFFFF" d="M2600,1121.258c-6.449,0-6.449,10,0,10S2606.449,1121.258,2600,1121.258z"/>
	<path display="inline" fill="#FFFFFF" d="M2788,1019.258c-6.449,0-6.449,10,0,10S2794.449,1019.258,2788,1019.258z"/>
	<path display="inline" fill="#FFFFFF" d="M2448,715.258c-6.449,0-6.449,10,0,10S2454.449,715.258,2448,715.258z"/>
	<path display="inline" fill="#FFFFFF" d="M3354,35.258c-6.449,0-6.449,10,0,10S3360.449,35.258,3354,35.258z"/>
	<path display="inline" fill="#FFFFFF" d="M2200,461.258c-6.448,0-6.448,10,0,10S2206.448,461.258,2200,461.258z"/>
	<path display="inline" fill="#FFFFFF" d="M1462,481.258c-6.449,0-6.449,10,0,10S1468.449,481.258,1462,481.258z"/>
	<path display="inline" fill="#FFFFFF" d="M1974,725.258c-6.448,0-6.448,10,0,10S1980.448,725.258,1974,725.258z"/>
	<path display="inline" fill="#FFFFFF" d="M1604,779.258c-6.449,0-6.449,10,0,10C1610.448,789.258,1610.448,779.258,1604,779.258z"
		/>
	<path display="inline" fill="#FFFFFF" d="M2188,877.258c-6.448,0-6.448,10,0,10S2194.448,877.258,2188,877.258z"/>
	<path display="inline" fill="#FFFFFF" d="M1993.856,114.957c-6.448,0-6.448,10,0,10S2000.305,114.957,1993.856,114.957z"/>
	<path display="inline" fill="#FFFFFF" d="M1576.815,81.953c-6.449,0-6.449,10,0,10S1583.264,81.953,1576.815,81.953z"/>
	<path display="inline" fill="#FFFFFF" d="M2995.957-419.097c-6.449,0-6.449,10,0,10S3002.406-419.097,2995.957-419.097z"/>
	<path display="inline" fill="#FFFFFF" d="M3740.031-506.105c-6.449,0-6.449,10,0,10S3746.48-506.105,3740.031-506.105z"/>
	<path display="inline" fill="#FFFFFF" d="M3316.989-533.108c-6.448,0-6.448,10,0,10S3323.438-533.108,3316.989-533.108z"/>
	<path display="inline" fill="#FFFFFF" d="M2695.927-788.134c-6.448,0-6.448,10,0,10S2702.375-788.134,2695.927-788.134z"/>
	<path display="inline" fill="#FFFFFF" d="M2623.92-347.09c-6.449,0-6.449,10,0,10S2630.369-347.09,2623.92-347.09z"/>
	<path display="inline" fill="#FFFFFF" d="M1210.778-92.064c-6.449,0-6.449,10,0,10S1217.227-92.064,1210.778-92.064z"/>
	<path display="inline" fill="#FFFFFF" d="M1165.774,556c-6.449,0-6.449,10,0,10S1172.223,556,1165.774,556z"/>
	<path display="inline" fill="#FFFFFF" d="M1774.835,339.979c-6.448,0-6.448,10,0,10S1781.283,339.979,1774.835,339.979z"/>
	<path display="inline" fill="#FFFFFF" d="M2305.888,126.958c-6.448,0-6.448,10,0,10S2312.336,126.958,2305.888,126.958z"/>
	<path display="inline" fill="#FFFFFF" d="M1852.843-155.071c-6.448,0-6.448,10,0,10S1859.291-155.071,1852.843-155.071z"/>
	<path display="inline" fill="#FFFFFF" d="M1087.766-707.126c-6.449,0-6.449,10,0,10S1094.215-707.126,1087.766-707.126z"/>
	<path display="inline" fill="#FFFFFF" d="M1897.848-848.14c-6.448,0-6.448,10,0,10S1904.296-848.14,1897.848-848.14z"/>
	<path display="inline" fill="#FFFFFF" d="M848,303.258c-6.449,0-6.449,10,0,10S854.449,303.258,848,303.258z"/>
	<path display="inline" fill="#FFFFFF" d="M684-244.742c-6.449,0-6.449,10,0,10S690.449-244.742,684-244.742z"/>
	<path display="inline" fill="#FFFFFF" d="M260-612.742c-6.449,0-6.449,10,0,10S266.449-612.742,260-612.742z"/>
	<path display="inline" fill="#FFFFFF" d="M328,383.258c-6.449,0-6.449,10,0,10S334.449,383.258,328,383.258z"/>
	<path display="inline" fill="#FFFFFF" d="M340,27.258c-6.449,0-6.449,10,0,10S346.449,27.258,340,27.258z"/>
	<path display="inline" fill="#FFFFFF" d="M788,871.258c-6.449,0-6.449,10,0,10S794.449,871.258,788,871.258z"/>
	<path display="inline" fill="#FFFFFF" d="M244,947.258c-6.449,0-6.449,10,0,10S250.449,947.258,244,947.258z"/>
	<path display="inline" fill="#FFFFFF" d="M548,603.258c-6.449,0-6.449,10,0,10S554.449,603.258,548,603.258z"/>
	<path display="inline" fill="#FFFFFF" d="M4116-848.742c-6.449,0-6.449,10,0,10S4122.449-848.742,4116-848.742z"/>
	<path display="inline" fill="#FFFFFF" d="M4108-360.742c-6.449,0-6.449,10,0,10S4114.449-360.742,4108-360.742z"/>
	<path display="inline" fill="#FFFFFF" d="M4216,91.258c-6.449,0-6.449,10,0,10S4222.449,91.258,4216,91.258z"/>
	<path display="inline" fill="#FFFFFF" d="M4656-400.742c-6.449,0-6.449,10,0,10S4662.449-400.742,4656-400.742z"/>
	<path display="inline" fill="#FFFFFF" d="M4400-628.742c-6.449,0-6.449,10,0,10S4406.449-628.742,4400-628.742z"/>
	<path display="inline" fill="#FFFFFF" d="M4380-108.742c-6.449,0-6.449,10,0,10S4386.449-108.742,4380-108.742z"/>
	<path display="inline" fill="#FFFFFF" d="M5220-736.742c-6.449,0-6.449,10,0,10S5226.449-736.742,5220-736.742z"/>
	<path display="inline" fill="#FFFFFF" d="M5016-104.742c-6.449,0-6.449,10,0,10S5022.449-104.742,5016-104.742z"/>
	<path display="inline" fill="#FFFFFF" d="M4896-684.742c-6.449,0-6.449,10,0,10S4902.449-684.742,4896-684.742z"/>
	<path display="inline" fill="#FFFFFF" d="M5416,495.258c-6.449,0-6.449,10,0,10S5422.449,495.258,5416,495.258z"/>
	<path display="inline" fill="#FFFFFF" d="M5256,39.258c-6.449,0-6.449,10,0,10S5262.449,39.258,5256,39.258z"/>
	<path display="inline" fill="#FFFFFF" d="M5328-392.742c-6.449,0-6.449,10,0,10S5334.449-392.742,5328-392.742z"/>
	<path display="inline" fill="#FFFFFF" d="M5068-348.742c-6.449,0-6.449,10,0,10S5074.449-348.742,5068-348.742z"/>
	<path display="inline" fill="#FFFFFF" d="M5120,311.258c-6.449,0-6.449,10,0,10S5126.449,311.258,5120,311.258z"/>
	<path display="inline" fill="#FFFFFF" d="M5428,947.258c-2.726,0-5,2.274-5,5v4c0,2.726,2.274,5,5,5s5-2.274,5-5v-4
		C5433,949.533,5430.726,947.258,5428,947.258z"/>
	<path display="inline" fill="#FFFFFF" d="M3656-696.742c-6.449,0-6.449,10,0,10S3662.449-696.742,3656-696.742z"/>
	<path display="inline" fill="#FFFFFF" d="M1120,259.258c-6.449,0-6.449,10,0,10S1126.449,259.258,1120,259.258z"/>
	<path display="inline" fill="#FFFFFF" d="M604,43.258c-6.449,0-6.449,10,0,10S610.449,43.258,604,43.258z"/>
	<path display="inline" fill="#FFFFFF" d="M3008-684.742c-6.449,0-6.449,10,0,10S3014.449-684.742,3008-684.742z"/>
	<path display="inline" fill="#FFFFFF" d="M344-340.742c-6.449,0-6.449,10,0,10S350.449-340.742,344-340.742z"/>
	<path display="inline" fill="#FFFFFF" d="M1012-264.742c-6.449,0-6.449,10,0,10S1018.449-264.742,1012-264.742z"/>
</g>
<g id="Ground_1_">
	<polygon id="Ground" fill="#BCBEC0" points="-29.031,1418.008 2192.836,1393.258 2167.575,1516.258 -10.622,1516.258 	"/>
	<g id="Mountain">
		<path fill="#BCBEC0" d="M4060.029,1497.758h1423.207c0,0-415.665-1156.648-687.07-1428.305
			c-245.651-245.879-747.233,418.403-736.137,393.305"/>
		<path fill="#BCBEC0" d="M2158.575,1516.258H4063l-2-1053c0,0-676.998,720.097-754.994,801.093s-332.983,277.485-708.965,30.498
			L2273,1038.378"/>
		<path fill="#E6E7E8" d="M2167.575,1516.258H4062v-1036c0,0-676.998,720.097-754.994,801.093s-332.983,277.485-707.965,31.498
			L2275,1056.378"/>
		<path fill="#E6E7E8" d="M4060.029,1515.258h1423.207c0,0-415.665-1156.648-687.07-1428.305
			c-246.469-246.697-746.416,416.555-736.137,393.305"/>
	</g>
</g>
<g id="Shmulik">
	<g>
		<polygon fill="#F79521" points="3648.579,840.918 3633.971,820.326 3664.778,776.642 3706.554,766.575 		"/>
		
			<rect x="3593.863" y="814.637" transform="matrix(0.7885 0.6151 -0.6151 0.7885 1275.7661 -2052.8157)" fill="#E9262A" width="57.005" height="27.45"/>
	</g>
	<g>
		<path fill="#F79521" d="M3639.355,652.584c12.673,31.063-0.694,106.264-69.392,134.295l-6.524-15.998
			c72.861-29.733,52.025-94.499,52.025-94.499L3639.355,652.584z"/>
		
			<ellipse transform="matrix(-0.378 -0.9258 0.9258 -0.378 4196.4722 4376.6855)" fill="#FDC888" cx="3568.551" cy="778.569" rx="11.519" ry="12.81"/>
	</g>
	<g>
		<path d="M3531.48,947.907c-16.224-9.956-21.753-15.956-30.054-23.455c-20.972-18.943-52.98-67.027-56.745-87.782
			c-3.762-20.753,1.951-39.544,17.145-56.363c22.494-24.903,48.4-30.631,78.808-30.266c37.011,0.445,106.437,21.496,138.327,50.302
			c4.043,3.652,7.441,6.915,10.19,9.8c21.51-23.813,98.193-107.395,126.929-142.725l30.435,23.613
			c-27.998,34.775-147.803,157.97-181.548,195.429c-31.599,35.076-45.045,48.05-66.591,63.399
			C3575.45,966.193,3547.278,957.601,3531.48,947.907z M3503.918,799.875c-32.661,36.81,0.547,92.351,32.883,114.916
			c14.244,9.939,22.744,9.651,34.857,7.983c12.115-1.667,58.229-50.681,92.267-88.362c-3.623-3.673-8.222-8.024-13.794-13.055
			C3600.874,776.864,3540.224,758.957,3503.918,799.875z"/>
	</g>
	<g>
		<polygon fill="#F79521" points="3704.736,819.111 3691.274,797.618 3720.473,763.529 3757.217,754.708 		"/>
		
			<rect x="3650.49" y="791.962" transform="matrix(0.7716 0.6361 -0.6361 0.7716 1352.6416 -2156.1042)" fill="#E9262A" width="57.004" height="27.451"/>
	</g>
	<g>
		<g>
			<polygon fill="#E9262A" points="3757.217,754.708 3664.494,776.966 3654.897,759.142 3744.917,735.071 			"/>
			<polygon fill="#F79521" points="3746.385,737.586 3654.897,759.142 3618.189,700.532 3611.601,667.951 3666.734,634.025 
				3691.411,649.819 			"/>
		</g>
		<g>
			<path fill="#E9262A" d="M3718.672,724.303c0.311,0.496,0.396,0.869,0.259,1.121c-0.052,0.129-0.342,0.394-0.881,0.796
				c-1.353,1.044-3.695,1.813-6.315,3.455c-3.706,2.32-6.643,2.471-7.381,2.735c-0.737,0.266-1.26,0.15-1.571-0.345
				c-1.169-1.865-1.76-3.007-3.924-6.859c-2.168-3.852-2.402-4.423-3.57-6.288c-0.578-0.92-1.171-1.288-1.778-1.105
				c-0.919,0.314-4.096,1.009-10.151,2.914c-6.134,1.928-8.851,3.154-9.559,3.86c-0.444,0.445-0.37,1.138,0.217,2.081
				c1.221,1.945,0.889,1.314,3.565,5.298c2.417,3.596,1.695,2.313,2.85,4.153c0.441,0.708,0.384,1.323-0.179,1.838
				c-0.669,0.615-3.126,1.843-7.239,3.237c-3.454,1.171-6.693,0.911-7.655,1.315c-0.757,0.311-1.328,0.16-1.713-0.454
				c-1.597-2.549,0.771,0.958-2.202-4.342c-2.976-5.301-2.404-4.664-4.017-7.236c-1.714-2.738-4.409-6.777-8.079-12.115
				c-3.677-5.34-8.874-13.379-10.591-16.118c-0.325-0.518-0.238-0.934,0.257-1.244c0.73-0.458,2.215-0.542,3.734-1.396
				c1.521-0.854,2.866-1.362,3.634-1.679c0.825-0.343,1.691-0.795,3.629-1.41c2.489-0.793,3.304-0.81,4.246-1.083
				c0.453-0.134,0.733-0.166,1,0.259c1.109,1.77,0.849,1.644,2.8,5.334c1.95,3.691,4.553,8.137,5.662,9.906
				c0.518,0.827,1.044,1.17,1.582,1.031c0.731-0.195,3.615-1.609,10.315-3.679c6.711-2.074,9.349-2.805,10.032-3.496
				c0.479-0.497,0.457-1.157-0.059-1.984c-1.066-1.699-3.831-5.928-6.146-9.259c-2.315-3.331-4.012-5.856-5.092-7.58
				c-0.457-0.731-0.393-1.283,0.197-1.652c0.686-0.429,1.968-0.809,3.56-1.285c1.617-0.483,2.79-1.062,3.592-1.307
				c1.055-0.321,2.347-0.704,3.809-1.273c1.547-0.603,2.381-0.961,3.434-1.17c0.794-0.158,1.206-0.361,1.559,0.206
				c1.7,2.713,2.362,4.023,5.569,9.637c3.205,5.616,5.664,9.792,7.379,12.53c1.612,2.573,4.152,6.354,7.622,11.344
				C3714.543,717.985,3717.075,721.754,3718.672,724.303z"/>
		</g>
	</g>
	<g>
		<g>
			<circle fill="#FDC888" cx="3595.708" cy="580.787" r="88.764"/>
			<path d="M3548.908,505.193c-36.011,21.707-50.718,66.25-37.498,104.447l98.69-61.631l55.121,88.006
				c23.015-28.644,26.634-69.816,6.028-102.713C3645.229,491.757,3592.024,479.204,3548.908,505.193z"/>
		</g>
		<g>
			<g>
				<path fill="#FFFFFF" d="M3608.375,572.004c7.487,11.953,3.863,27.719-8.088,35.205c-11.955,7.488-27.715,3.864-35.202-8.09
					c-7.489-11.959-3.866-27.71,8.09-35.199C3585.126,556.433,3600.887,560.046,3608.375,572.004z"/>
				<path d="M3587.701,599.751c1.627,2.598,0.837,6.018-1.76,7.643c-2.598,1.628-6.02,0.847-7.646-1.751
					c-1.631-2.599-0.842-6.024,1.758-7.652C3582.648,596.365,3586.073,597.151,3587.701,599.751z"/>
			</g>
			<g>
				<path fill="#FFFFFF" d="M3553.042,608.357c7.488,11.954,3.868,27.714-8.09,35.204c-11.955,7.487-27.715,3.866-35.203-8.088
					c-7.487-11.954-3.865-27.711,8.09-35.199C3529.798,592.784,3545.556,596.402,3553.042,608.357z"/>
				<path d="M3539.954,629.654c1.627,2.6,0.841,6.02-1.757,7.647c-2.599,1.626-6.018,0.842-7.646-1.757
					c-1.626-2.596-0.845-6.023,1.755-7.649C3534.901,626.269,3538.327,627.059,3539.954,629.654z"/>
			</g>
		</g>
		<g>
			<g>
				<path fill="#F16C4F" d="M3626.525,631.521c7.2,11.497,7.685,24.182,1.084,28.317l-33.714,21.117
					c-6.602,4.135-17.803-1.839-25.007-13.335l0,0c-7.2-11.498-7.684-24.183-1.084-28.318l33.715-21.117
					C3608.123,614.049,3619.322,620.023,3626.525,631.521L3626.525,631.521z"/>
			</g>
			<path fill="#E9262A" d="M3616.338,638.17c3.965,6.328,3.625,13.691-0.758,16.437l-22.386,14.022
				c-4.386,2.745-11.157-0.163-15.118-6.491l0,0c-3.965-6.329-3.627-13.692,0.757-16.438l22.384-14.021
				C3605.602,628.934,3612.375,631.842,3616.338,638.17L3616.338,638.17z"/>
		</g>
	</g>
	<g>
		<path fill="#F79521" d="M3666.734,634.025c8.43-1.655,25.321,4.956,26.676,18.139c2.76,26.848-26.235,91.368-63.24,124.636
			l-11.55-12.852c58.525-52.612,46.549-119.989,46.549-119.989L3666.734,634.025z"/>
		
			<ellipse transform="matrix(-0.6686 -0.7437 0.7437 -0.6686 5478.0225 3980.4214)" fill="#FDC888" cx="3626.03" cy="769.458" rx="11.521" ry="12.811"/>
	</g>
</g>
<g id="Death">
	<g>
		<g>
			<path fill="#808285" d="M1528.479,1396.706c0,0,98.005-417.788,96.309-457.944l28.991,6.097c0,0-105.642,419.214-95.28,453.042"
				/>
			<path fill="#BCBEC0" d="M1651.228,956.985c0,0,175.438,35.991,155.398,131.276c0,0,1.594-51.719-163.647-92.062"/>
		</g>
		<path fill="#F1F2F2" d="M1786.898,1036.542c0,0-32.037-39.341-56.314-40.843C1721.65,995.146,1786.898,1036.542,1786.898,1036.542
			z"/>
	</g>
	<g>
		<path fill="#414042" d="M1479.783,1426.483c0,0,92.058-296.237,20.064-372.952c-62.833-66.954-157.561-30.686-183.526-15.343
			c-25.965,15.343-29.541,24.866-33.047,50.75c-12.392,91.468,18.693,296.956,34.227,341.088c0,0,10.901-5.988,21.08-5.102
			c10.18,0.885-2.213,4.889-6.639,5.102c-4.426,0.211,40.718,8.178,39.391-9.973c-1.328-18.143,23.458,3.543,18.589,7.086
			c-4.87,3.539,21.687-8.852,26.997-5.313c5.312,3.543,19.917,6.738,12.835,8.236c-7.081,1.5,27.522,8.275,14.163-13.992
			C1437.279,1405.008,1479.783,1426.483,1479.783,1426.483z"/>
		<g>
			<path d="M1305.414,1158.008c0,39.51,44.98,57.856,44.98,57.856l0.449,34.497l34.079,0.098l-0.531-33.937l6.727,0.47l1.328,33.369
				h30.981l1.327-33.812h7.524l1.327,33.812l32.752-1.061c0,0-0.982-38.896,1.147-39.348c25.26-5.353,40.613-23.057,40.613-51.945
				c0-66.175-45.377-109.198-101.352-109.198C1350.791,1048.81,1305.414,1091.833,1305.414,1158.008z"/>
			<g>
				<path fill="#FFFFFF" d="M1337.1,1123.638c0,17.208,13.95,23.528,31.159,23.528c17.208,0,34.806-5.087,31.159-23.528
					c-3.336-16.882-13.951-31.159-31.157-31.159C1351.05,1092.479,1337.1,1106.428,1337.1,1123.638z"/>
				<path fill="#FFFFFF" d="M1476.435,1123.638c0,17.208-13.95,23.528-31.16,23.528c-17.208,0-34.807-5.087-31.16-23.528
					c3.338-16.882,13.95-31.159,31.159-31.159S1476.435,1106.428,1476.435,1123.638z"/>
			</g>
		</g>
		<path d="M1493.484,1250.622c0,0,81.387,39.837,87.691,42.937c6.305,3.1-1.719,44.421-10.022,40.352
			c-8.304-4.07-77.669-38.077-77.669-38.077"/>
		<path fill="#414042" d="M1415.622,1036.542c0,0-9.653,27.605-21.806,29.194c-2.48,0.325-15.22,9.892-22.984,19.805
			c0,0,6.463,3.7,1.354,11.836c0,0-6.277-3.959-6.957,10.687c-0.189,4.084-5.314-7.606-7.688-4.043
			c-4.926,7.391-11.323,4.658-14.277,15.801c-1.459,5.506-3.797,4.131-10.83,8.056c0,0-3.212,4.639-3.903,7.394
			c-12.018,47.916-37.251,83.869-34.75,88.253C1302.403,1238.643,1249.712,1020.528,1415.622,1036.542z"/>
	</g>
</g>
<g id="Thorns">
	<g>
		<polyline points="1205.322,1474.258 1271.322,1167.258 1301.322,1493.258 		"/>
		<polyline points="1315.322,1453.258 1343.322,1341.258 1357.322,1437.258 		"/>
		<polyline points="1407.018,1453.258 1429.322,1368.758 1429.322,1467.258 		"/>
		<polyline points="1346.322,1493.258 1392.322,1265.258 1383.156,1474.258 		"/>
		<polyline points="1470.373,1473.258 1457.106,1274.258 1445.106,1484.258 		"/>
		<polyline points="1466.531,1493.258 1556.114,1265.258 1524.114,1484.258 		"/>
		<polyline points="1544.322,1453.258 1572.322,1341.258 1586.322,1437.258 		"/>
		<polyline points="1575.322,1493.258 1621.322,1265.258 1612.156,1474.258 		"/>
		<polyline points="1667.373,1491.258 1654.106,1292.258 1642.106,1502.258 		"/>
		<polyline points="1667.373,1460.258 1689.678,1375.758 1689.678,1474.258 		"/>
		<polyline points="1710.678,1509.258 1738.678,1397.258 1752.678,1493.258 		"/>
		<polyline points="1784.386,1491.258 1771.119,1292.258 1759.119,1502.258 		"/>
		<polyline points="1780.544,1511.258 1870.126,1283.258 1838.126,1502.258 		"/>
		<polyline points="1858.335,1471.258 1886.335,1359.258 1900.335,1455.258 		"/>
		<polyline points="1889.335,1511.258 1935.335,1283.258 1926.169,1492.258 		"/>
		<polyline points="1128.585,1469.758 1115.318,1270.758 1103.318,1480.758 		"/>
		<polyline points="1124.743,1489.758 1214.325,1261.758 1182.325,1480.758 		"/>
	</g>
	<g>
		<polyline points="357.753,1465.258 423.753,1158.258 453.753,1484.258 		"/>
		<polyline points="467.753,1444.258 495.753,1332.258 509.753,1428.258 		"/>
		<polyline points="559.449,1444.258 581.753,1359.758 581.753,1458.258 		"/>
		<polyline points="498.753,1484.258 544.753,1256.258 535.587,1465.258 		"/>
		<polyline points="622.804,1464.258 609.538,1265.258 597.538,1475.258 		"/>
		<polyline points="618.962,1484.258 708.544,1256.258 676.544,1475.258 		"/>
		<polyline points="696.753,1444.258 724.753,1332.258 738.753,1428.258 		"/>
		<polyline points="727.753,1484.258 773.753,1256.258 764.587,1465.258 		"/>
		<polyline points="819.804,1482.258 806.538,1283.258 794.538,1493.258 		"/>
		<polyline points="819.804,1451.258 842.109,1366.758 842.109,1465.258 		"/>
		<polyline points="863.109,1500.258 891.109,1388.258 905.109,1484.258 		"/>
		<polyline points="936.817,1482.258 923.55,1283.258 911.55,1493.258 		"/>
		<polyline points="932.975,1502.258 1022.557,1274.258 990.557,1493.258 		"/>
		<polyline points="1010.766,1462.258 1038.766,1350.258 1052.766,1446.258 		"/>
		<polyline points="1041.766,1502.258 1087.766,1274.258 1078.6,1483.258 		"/>
		<polyline points="281.016,1460.758 267.75,1261.758 255.75,1471.758 		"/>
		<polyline points="277.174,1480.758 366.756,1252.758 334.756,1471.758 		"/>
	</g>
</g>
<g id="_x34_04">
	<g>
		<circle fill="#FFF200" cx="1796.267" cy="-460.594" r="181.284"/>
		<g>
			<g>
				<defs>
					<rect id="SVGID_1_" x="1588.017" y="-647.519" width="374.615" height="384.451"/>
				</defs>
				<clipPath id="SVGID_2_">
					<use xlink:href="#SVGID_1_"  overflow="visible"/>
				</clipPath>
				<g clip-path="url(#SVGID_2_)">
					<defs>
						<rect id="SVGID_3_" x="1588.017" y="-647.519" width="374.615" height="384.451"/>
					</defs>
					<clipPath id="SVGID_4_">
						<use xlink:href="#SVGID_3_"  overflow="visible"/>
					</clipPath>
					<path clip-path="url(#SVGID_4_)" d="M1954.435-455.748c0,99.373-80.558,179.93-179.93,179.93
						c-99.373,0-179.93-80.557-179.93-179.93s80.557-179.93,179.93-179.93C1873.877-635.678,1954.435-555.121,1954.435-455.748"/>
					<path clip-path="url(#SVGID_4_)" fill="#FFFFFF" d="M1640.729-474.475c7.081-14.594,20.338-26.739,39.785-36.439
						c7.698-3.84,17.116-8.347,28.256-13.524c11.145-5.176,17.877-8.349,20.205-9.51l21.729-10.833
						c12.32,28.508,27.174,60.184,44.547,95.026c20.206,40.514,38.24,74.773,54.104,102.781l-29.17,14.547
						c-13.985-32.104-26.489-59.196-37.499-81.276c-2.634,1.567-5.826,3.281-9.57,5.15c-29.574,14.749-55.977,20.775-79.21,18.066
						c-23.228-2.706-40.603-15.605-52.121-38.699C1634.009-444.779,1633.657-459.878,1640.729-474.475 M1760.375-426.48
						c5.165-2.575,9.476-4.849,12.915-6.821c-17.426-34.943-29.901-60.844-37.428-77.708c-11.589,3.884-21.746,7.999-30.457,12.343
						c-35.552,17.73-46.836,39.611-33.854,65.642C1685.09-405.882,1714.696-403.7,1760.375-426.48"/>
					<path clip-path="url(#SVGID_4_)" fill="none" stroke="#FFFFFF" stroke-width="10" stroke-miterlimit="10" d="M1640.729-474.475
						c7.081-14.594,20.338-26.739,39.785-36.439c7.698-3.84,17.116-8.347,28.256-13.524c11.145-5.176,17.877-8.349,20.205-9.51
						l21.729-10.833c12.32,28.508,27.174,60.184,44.547,95.026c20.206,40.514,38.24,74.773,54.104,102.781l-29.17,14.547
						c-13.985-32.104-26.489-59.196-37.499-81.276c-2.634,1.567-5.826,3.281-9.57,5.15c-29.574,14.749-55.977,20.775-79.21,18.066
						c-23.228-2.706-40.603-15.605-52.121-38.699C1634.009-444.779,1633.657-459.878,1640.729-474.475z M1760.375-426.48
						c5.165-2.575,9.476-4.849,12.915-6.821c-17.426-34.943-29.901-60.844-37.428-77.708c-11.589,3.884-21.746,7.999-30.457,12.343
						c-35.552,17.73-46.836,39.611-33.854,65.642C1685.09-405.882,1714.696-403.7,1760.375-426.48z"/>
					<path clip-path="url(#SVGID_4_)" fill="#FFFFFF" d="M1865.04-562.676l-46.532,128.04l76.643,1.52l5.065,22.377l-98.546-2.368
						c-14.037,39.502-21.053,63.325-21.053,71.475h-34.296c0-4.187,14.604-40.378,43.802-108.57
						c29.202-68.19,43.801-105.684,43.801-112.474h15.401H1865.04z"/>
					<path clip-path="url(#SVGID_4_)" fill="none" stroke="#FFFFFF" stroke-width="10" stroke-miterlimit="10" d="M1865.04-562.676
						l-46.532,128.04l76.643,1.52l5.065,22.377l-98.546-2.368c-14.037,39.502-21.053,63.325-21.053,71.475h-34.296
						c0-4.187,14.604-40.378,43.802-108.57c29.202-68.19,43.801-105.684,43.801-112.474h15.401H1865.04z"/>
				</g>
			</g>
		</g>
		
			<line fill="#FFFFFF" stroke="#FFFFFF" stroke-width="13" stroke-miterlimit="10" x1="2075.542" y1="-518.843" x2="2021.105" y2="-502.946"/>
		
			<line fill="#FFFFFF" stroke="#FFFFFF" stroke-width="13" stroke-miterlimit="10" x1="1977.551" y1="-669.871" x2="1946.747" y2="-631.173"/>
		
			<line fill="#FFFFFF" stroke="#FFFFFF" stroke-width="13" stroke-miterlimit="10" x1="2051.194" y1="-340.416" x2="2006.763" y2="-365.815"/>
	</g>
	<text transform="matrix(1 0 0 1 1183.5342 -279.3091)" font-family="'NuevaStd-Bold'" font-size="600">4</text>
	<text transform="matrix(1 0 0 1 2075.542 -266.0718)" font-family="'NuevaStd-Bold'" font-size="600">4</text>
</g>
</svg>
